<svg xmlns="http://www.w3.org/2000/svg" width="24" height="24" viewBox="0 0 24 24">
  <g fill="#000000" transform="translate(2 1)">
    <path d="M10.1681111,8.97200317 L7.16811111,8.97200317 L7.16811111,1.67200292 L10.1681111,1.67200292 L10.1681111,2.57200292 L16.1681111,2.57200292 L16.1681111,1.67200292 L19.1681111,1.67200292 L19.1681111,8.97200317 L16.1681111,8.97200317 L16.1681111,8.07200292 L14.8181111,8.07200292 L14.908295,21.6867078 L11.408295,21.6867078 L11.3181111,8.07200292 L10.1681111,8.07200292 L10.1681111,8.97200317 Z M8.16811111,2.67200292 L8.16811111,7.97200317 L9.16811111,7.97200317 L9.16811111,7.07200292 L12.3181111,7.07200292 L12.3831688,20.6260476 L13.8831688,20.6260476 L13.8181111,7.07200292 L17.1681111,7.07200292 L17.1681111,7.97200317 L18.1681111,7.97200317 L18.1681111,2.67200292 L17.1681111,2.67200292 L17.1681111,3.57200292 L9.16811111,3.57200292 L9.16811111,2.67200292 L8.16811111,2.67200292 Z" transform="rotate(-45 13.168 11.68)"/>
    <path d="M9,20.2074462 L0,20.2074462 L0,17.2074462 L9,17.2074462 L9,20.2074462 Z M1,18.2074462 L1,19.2074462 L8,19.2074462 L8,18.2074462 L1,18.2074462 Z" transform="rotate(-180 4.5 18.707)"/>
  </g>
</svg>
