<svg xmlns="http://www.w3.org/2000/svg" width="24" height="24" viewBox="0 0 24 24">
  <g fill="#000000" fill-rule="evenodd" transform="translate(1 3)">
    <path d="M4.5381 8C5.1821 8.002 5.7481 8.232 6.1341 8.646L6.8661 7.966C6.2901 7.346 5.4651 7.003 4.5411 7L4.5281 7C3.5991 7 2.7051 7.359 2.1361 7.963L2.8641 8.649C3.2491 8.24 3.8611 7.969 4.5381 8M10.5381 8C11.1821 8.002 11.7481 8.232 12.1341 8.646L12.8661 7.966C12.2911 7.346 11.4651 7.003 10.5411 7L10.5281 7C9.5991 7 8.7051 7.359 8.1361 7.963L8.8641 8.649C9.2491 8.24 9.9141 7.969 10.5381 8M3.1152 14.0127C4.1732 15.2877 5.7022 15.9937 7.4222 15.9997L7.4442 15.9997C9.1772 15.9997 10.8352 15.2587 11.8822 14.0157L11.1172 13.3707C10.2582 14.3927 8.8862 14.9997 7.4442 14.9997L7.4262 14.9997C6.0082 14.9947 4.7502 14.4177 3.8852 13.3737L3.1152 14.0127zM17.4717 6.0029C18.4017 6.0029 19.2947 5.6439 19.8647 5.0399L19.1357 4.3539C18.7527 4.7609 18.1307 5.0029 17.4727 5.0029L17.4627 5.0029C16.8187 5.0009 16.2517 4.7709 15.8667 4.3569L15.1337 5.0369C15.7097 5.6569 16.5347 5.9999 17.4587 6.0029L17.4717 6.0029z"/>
    <path d="M21,9.5 C21,13.084 18.084,16 14.5,16 C14.378,16 14.26,15.988 14.14,15.982 L14.14,15.982 C14.687,14.941 15,13.758 15,12.5 L15,11.039 C16.24,11.149 17.339,11.684 18.115,12.619 L18.885,11.98 C17.915,10.811 16.546,10.128 15,10.017 L15,3 L8,3 L8,1 L21,1 L21,9.5 Z M14,12.5 C14,16.084 11.084,19 7.5,19 C3.916,19 1,16.084 1,12.5 L1,4 L14,4 L14,12.5 Z M7,0 L7,3 L0,3 L0,12.5 C0,16.642 3.358,20 7.5,20 C9.982,20 12.176,18.789 13.541,16.932 C13.855,16.972 14.174,17 14.5,17 C18.642,17 22,13.642 22,9.5 L22,0 L7,0 Z"/>
  </g>
</svg>
