<svg xmlns="http://www.w3.org/2000/svg" width="24" height="24" viewBox="0 0 24 24" xmlns:xlink="http://www.w3.org/1999/xlink">
  <defs>
    <polygon points=".001 .019 19.846 .019 19.846 9 .001 9"/>
  </defs>
  <g fill="none" fill-rule="evenodd" transform="translate(2 1)">
    <path fill="#000000" d="M10.8963,-0.0002 L4.8853,4.0008 L4.8853,9.9998 L16.8853,9.9998 L16.8853,4.0008 L10.8963,-0.0002 Z M5.8853,4.4808 L10.8963,1.2808 L15.8853,4.4808 L15.8853,8.9998 L5.8853,8.9998 L5.8853,4.4808 Z"/>
    <polygon fill="#000000" points="11.921 7 13.921 7 13.921 5 11.921 5"/>
    <polygon fill="#000000" points="7.884 7 9.884 7 9.884 5 7.884 5"/>
    <g transform="translate(0 11.958)">
      <path fill="#000000" d="M5.0356,5.6182 L8.4736,7.5582 C8.8986,7.8472 9.3536,7.9912 9.8266,7.9992 C9.9916,7.9972 10.1576,7.9882 10.3196,7.9572 L18.3326,5.4722 C18.7156,5.3552 18.9316,4.9522 18.8156,4.5722 C18.7006,4.1912 18.2936,3.9792 17.9176,4.0922 L13.9616,5.2622 L13.9586,5.2512 C13.9406,5.2842 13.9236,5.3172 13.9026,5.3492 C13.4596,6.0762 12.5086,6.3062 11.7826,5.8642 L8.5706,3.8412 L9.1036,2.9952 L12.3086,5.0142 C12.5596,5.1672 12.8936,5.0842 13.0496,4.8292 C13.2046,4.5742 13.1236,4.2392 12.8676,4.0832 L8.8046,1.5422 C8.1676,1.1552 7.7116,0.9982 7.2046,1.0192 C6.9636,1.0242 6.2226,1.2072 5.6296,1.3532 L5.3856,1.4132 C4.8166,1.5532 2.3036,2.3332 1.2446,2.6642 L2.3806,6.4112 L5.0356,5.6182 Z M9.8726,9.0002 C9.8506,9.0002 9.8306,8.9992 9.8086,8.9992 C9.1416,8.9882 8.4966,8.7832 7.9456,8.4072 L4.9146,6.6982 L1.7126,7.6532 L0.0006,2.0062 L0.4736,1.8582 C0.6326,1.8072 4.3946,0.6262 5.1466,0.4422 L5.3896,0.3832 C6.2616,0.1682 6.8556,0.0262 7.1826,0.0192 C7.9116,0.0142 8.5166,0.1992 9.3276,0.6902 L13.3926,3.2322 C13.7536,3.4522 13.9916,3.8002 14.0846,4.1822 L17.6316,3.1342 C18.5346,2.8592 19.4986,3.3752 19.7726,4.2832 C20.0476,5.1892 19.5336,6.1512 18.6266,6.4282 L10.5626,8.9262 C10.3046,8.9782 10.0866,9.0002 9.8726,9.0002 L9.8726,9.0002 Z"/>
    </g>
  </g>
</svg>
