<svg xmlns="http://www.w3.org/2000/svg" width="24" height="24" viewBox="0 0 24 24">
  <path fill="#000000" fill-rule="evenodd" d="M1.9995,14.0001 L9.4995,14.0001 C10.2715,14.0001 10.9685,14.3001 11.4995,14.7781 L11.4995,3.0001 C11.4995,1.8961 10.6045,1.0001 9.4995,1.0001 L1.9995,1.0001 L1.9995,14.0001 Z M12.4995,14.7781 C13.0465,14.2791 13.7595,14.0021 14.4995,14.0001 L21.9995,14.0001 L21.9995,1.0001 L14.4995,1.0001 C13.3955,1.0001 12.4995,1.8961 12.4995,3.0001 L12.4995,14.7781 Z M0.9995,15.0001 L0.9995,0.0001 L9.4995,0.0001 C10.5585,0.0001 11.4825,0.5511 12.0175,1.3771 C12.5505,0.5581 13.4475,0.0001 14.4995,0.0001 L22.9995,0.0001 L22.9995,15.0001 L14.4995,15.0001 C13.3955,15.0001 12.4995,15.8961 12.4995,17.0001 L11.4995,17.0001 C11.4995,15.8961 10.6045,15.0001 9.4995,15.0001 L0.9995,15.0001 Z" transform="translate(0 3)"/>
</svg>
