<svg xmlns="http://www.w3.org/2000/svg" width="24" height="24" viewBox="0 0 24 24">
  <g fill="none" fill-rule="evenodd">
    <path fill="#000000" d="M2.97,17.0449 L20.992,17.0449 L20.992,3.9999 L2.97,3.9999 L2.97,17.0449 Z M3.97,16.0449 L19.992,16.0449 L19.992,4.9999 L3.97,4.9999 L3.97,16.0449 Z"/>
    <path fill="#000000" fill-rule="nonzero" d="M8.65684607,11.8457796 L6.84353046,11.8457796 L6.46414882,12.935698 L5.61857789,12.935698 L7.38688212,8.25451446 L8.1167095,8.25451446 L9.88822883,12.935698 L9.0394428,12.935698 L8.65684607,11.8457796 Z M7.07180246,11.1898995 L8.42857407,11.1898995 L7.75018826,9.24797993 L7.07180246,11.1898995 Z M10.4187201,12.935698 L10.4187201,8.25451446 L12.0230543,8.25451446 C12.2759767,8.25451446 12.5031747,8.27969915 12.7046552,8.33006928 C12.9061357,8.38043941 13.0765343,8.45706516 13.2158559,8.55994883 C13.3551775,8.6628325 13.4618106,8.79411438 13.5357582,8.95379841 C13.6097058,9.11348244 13.6466791,9.30263551 13.6466791,9.52126331 C13.6466791,9.73560429 13.5888079,9.92850828 13.4730638,10.0999811 C13.3573196,10.2714538 13.1879928,10.4043433 12.9650782,10.4986533 C13.100113,10.5350913 13.2174629,10.5881398 13.3171315,10.6578007 C13.4168001,10.7274615 13.4993201,10.8094457 13.5646941,10.9037557 C13.6300681,10.9980653 13.6788299,11.1020196 13.7109811,11.2156203 C13.7431322,11.329221 13.7592076,11.4471068 13.7592076,11.5692811 C13.7592076,11.7943391 13.7222343,11.9920657 13.6482867,12.1624668 C13.574339,12.3328679 13.4671701,12.4754025 13.3267768,12.5900749 C13.1863834,12.7047474 13.0159849,12.7910183 12.8155761,12.8488904 C12.6151673,12.9067624 12.3885051,12.935698 12.1355828,12.935698 L10.4187201,12.935698 Z M11.2321401,10.8233782 L11.2321401,12.2862481 L12.1355828,12.2862481 C12.2684742,12.2862481 12.3858241,12.2691011 12.4876361,12.2348065 C12.589448,12.200512 12.6746473,12.1517501 12.7432364,12.0885195 C12.8118255,12.025289 12.8632666,11.9497349 12.8975611,11.8618551 C12.9318557,11.7739753 12.9490027,11.6764516 12.9490027,11.5692811 C12.9490027,11.3377929 12.8879164,11.1556058 12.7657421,11.0227144 C12.6435677,10.889823 12.4453053,10.8233782 12.1709488,10.8233782 L11.2321401,10.8233782 Z M11.2321401,10.2253699 L12.0294845,10.2253699 C12.2824069,10.2253699 12.4801334,10.1680346 12.6226702,10.0533621 C12.7652069,9.93868971 12.8364743,9.77632885 12.8364743,9.56627469 C12.8364743,9.33478643 12.7705654,9.16760298 12.6387457,9.06471931 C12.506926,8.96183564 12.3016976,8.91039458 12.0230543,8.91039458 L11.2321401,8.91039458 L11.2321401,10.2253699 Z M18.144602,11.4117413 C18.123168,11.6410861 18.0695835,11.8527447 17.9838471,12.0467233 C17.8981107,12.2407018 17.7791533,12.4084211 17.6269712,12.5498862 C17.4747891,12.6913512 17.2888511,12.8017352 17.0691516,12.8810414 C16.8494521,12.9603475 16.5959977,13 16.3087807,13 C16.0215638,13 15.7616793,12.9480231 15.5291193,12.8440677 C15.2965594,12.7401123 15.0982969,12.5922193 14.9343261,12.4003841 C14.7703552,12.2085489 14.6444318,11.9765283 14.556552,11.7043153 C14.4686722,11.4321022 14.424733,11.1266709 14.424733,10.7880122 L14.424733,10.4086305 C14.424733,10.0721152 14.4697439,9.76721972 14.5597671,9.49393497 C14.6497903,9.22065023 14.778393,8.98755791 14.9455789,8.79465103 C15.1127649,8.60174415 15.3147782,8.4527794 15.551625,8.34775232 C15.7884718,8.24272524 16.0537148,8.19021249 16.3473619,8.19021249 C16.6260052,8.19021249 16.8724936,8.23040082 17.0868346,8.31077869 C17.3011756,8.39115655 17.4828268,8.50261219 17.6317938,8.64514894 C17.7807608,8.78768569 17.8975749,8.95754837 17.9822396,9.15474207 C18.0669043,9.35193577 18.1210245,9.56734522 18.144602,9.80097689 L17.3343972,9.80097689 C17.3172499,9.65308161 17.2877785,9.5201922 17.245982,9.40230466 C17.2041855,9.28441712 17.1447068,9.18421422 17.067544,9.10169294 C16.9903813,9.01917167 16.8928576,8.95647787 16.77497,8.91360967 C16.6570825,8.87074148 16.5145479,8.8493077 16.3473619,8.8493077 C16.1630287,8.8493077 16.0017395,8.88413759 15.8634896,8.95379841 C15.7252397,9.02345923 15.6100331,9.12419797 15.5178665,9.25601768 C15.4256999,9.38783738 15.3565759,9.55019823 15.3104926,9.74310511 C15.2644093,9.936012 15.241368,10.1557082 15.241368,10.4022003 L15.241368,10.7880122 C15.241368,11.0216438 15.2617301,11.2338382 15.3024549,11.4246017 C15.3431797,11.6153652 15.4064093,11.7787977 15.4921457,11.9149042 C15.5778821,12.0510107 15.688266,12.1565721 15.8233009,12.2315914 C15.9583357,12.3066108 16.1201607,12.3441199 16.3087807,12.3441199 C16.4845403,12.3441199 16.6329692,12.3237578 16.7540719,12.283033 C16.8751746,12.2423082 16.9753775,12.1822937 17.0546836,12.1029875 C17.1339898,12.0236813 17.1956119,11.9261576 17.2395518,11.8104135 C17.2834917,11.6946694 17.3151065,11.56178 17.3343972,11.4117413 L18.144602,11.4117413 Z"/>
    <path fill="#000000" d="M20.992,16.0452 L2.97,16.0452 L1,20.0692 L23,20 L20.992,16.0452 Z M20.38,17.0452 L21.412,19.0692 L2.602,19.0692 L3.594,17.0452 L20.38,17.0452 Z"/>
  </g>
</svg>
