<svg xmlns="http://www.w3.org/2000/svg" width="24" height="24" viewBox="0 0 24 24">
  <g fill="#000000" fill-rule="evenodd" transform="translate(1 1)">
    <path d="M5.4553-.0003C4.0793-.0003 2.9633 1.1157 2.9633 2.4917 2.9633 3.8687 4.0793 4.9837 5.4553 4.9837 6.8323 4.9837 7.9473 3.8687 7.9473 2.4917 7.9473 1.1157 6.8323-.0003 5.4553-.0003M5.4553.9997C6.2783.9997 6.9473 1.6697 6.9473 2.4917 6.9473 3.3147 6.2783 3.9837 5.4553 3.9837 4.6333 3.9837 3.9633 3.3147 3.9633 2.4917 3.9633 1.6697 4.6333.9997 5.4553.9997M1.9611 10.0153L.9611 10.0153C.9621 7.5373 2.9791 5.5223 5.4551 5.5223 7.9341 5.5223 9.9491 7.5373 9.9491 10.0153L8.9491 10.0153C8.9491 8.0893 7.3821 6.5223 5.4551 6.5223 3.5291 6.5223 1.9621 8.0893 1.9611 10.0153M16.508 11.0388C15.131 11.0388 14.016 12.1538 14.016 13.5308 14.016 14.9068 15.131 16.0228 16.508 16.0228 17.884 16.0228 19 14.9068 19 13.5308 19 12.1538 17.884 11.0388 16.508 11.0388M16.508 12.0388C17.33 12.0388 18 12.7078 18 13.5308 18 14.3528 17.33 15.0228 16.508 15.0228 15.685 15.0228 15.016 14.3528 15.016 13.5308 15.016 12.7078 15.685 12.0388 16.508 12.0388M13.0139 21.0534L12.0139 21.0534C12.0149 18.5754 14.0319 16.5604 16.5079 16.5604 18.9869 16.5604 21.0019 18.5754 21.0019 21.0534L20.0019 21.0534C20.0019 19.1274 18.4349 17.5604 16.5079 17.5604 14.5819 17.5604 13.0149 19.1274 13.0139 21.0534M21.6096 7.3063L20.4506 8.6473C19.6976 4.8333 16.7486 1.8733 13.0396 1.0233L13.0396 2.0453C16.1816 2.8523 18.6796 5.3583 19.4186 8.5803L18.2276 7.5493 18.3316 8.9853 20.1436 10.5553 21.7136 8.7433 21.6096 7.3063zM9.0627 20.03C5.7397 19.337 3.0637 16.763 2.2947 13.409L3.4847 14.44 3.3817 13.004 1.5697 11.434-.0003 13.247.1027 14.682 1.2627 13.343C2.0417 17.29 5.1707 20.329 9.0627 21.053L9.0627 20.03z"/>
  </g>
</svg>
