<svg xmlns="http://www.w3.org/2000/svg" width="24" height="24" viewBox="0 0 24 24">
  <g fill="#000000" fill-rule="evenodd" transform="translate(2 2)">
    <path d="M14.5689,2.904 L14.5699,2.904 L15.2769,2.197 C12.3469,-0.732 7.5989,-0.732 4.6699,2.197 C4.6639,2.203 4.6589,2.21 4.6529,2.216 L5.3599,2.923 C5.3659,2.917 5.3709,2.91 5.3769,2.904 C7.9119,0.37 12.0349,0.37 14.5689,2.904"/>
    <path d="M13.1549,4.318 L13.1549,4.318 L13.8629,3.611 L13.8619,3.611 C11.7149,1.464 8.2319,1.464 6.0849,3.611 C6.0779,3.617 6.0729,3.624 6.0669,3.63 L6.7749,4.338 C6.7809,4.332 6.7849,4.324 6.7919,4.318 C8.5459,2.563 11.4009,2.563 13.1549,4.318"/>
    <path d="M11.7408 5.7321L11.7408 5.7321 12.4478 5.0251C11.0808 3.6581 8.8648 3.6581 7.4978 5.0251 7.4918 5.0311 7.4878 5.0391 7.4818 5.0451L8.1888 5.7521C8.1948 5.7461 8.1988 5.7381 8.2048 5.7321 9.1788 4.7571 10.7658 4.7571 11.7408 5.7321M4.4947 7.027C3.1177 7.027 2.0027 8.143 2.0027 9.519 2.0027 10.895 3.1177 12.011 4.4947 12.011 5.8707 12.011 6.9867 10.895 6.9867 9.519 6.9867 8.143 5.8707 7.027 4.4947 7.027M4.4947 8.027C5.3167 8.027 5.9867 8.696 5.9867 9.519 5.9867 10.341 5.3167 11.011 4.4947 11.011 3.6717 11.011 3.0027 10.341 3.0027 9.519 3.0027 8.696 3.6717 8.027 4.4947 8.027M.9996 17.0426L-.0004 17.0426C.0006 14.5646 2.0176 12.5496 4.4936 12.5496 6.9726 12.5496 8.9876 14.5646 8.9876 17.0426L7.9876 17.0426C7.9876 15.1166 6.4206 13.5496 4.4936 13.5496 2.5676 13.5496 1.0006 15.1166.9996 17.0426M15.4947 7.027C14.1177 7.027 13.0027 8.143 13.0027 9.519 13.0027 10.895 14.1177 12.011 15.4947 12.011 16.8707 12.011 17.9867 10.895 17.9867 9.519 17.9867 8.143 16.8707 7.027 15.4947 7.027M15.4947 8.027C16.3167 8.027 16.9867 8.696 16.9867 9.519 16.9867 10.341 16.3167 11.011 15.4947 11.011 14.6717 11.011 14.0027 10.341 14.0027 9.519 14.0027 8.696 14.6717 8.027 15.4947 8.027M11.9996 17.0426L10.9996 17.0426C11.0006 14.5646 13.0176 12.5496 15.4936 12.5496 17.9726 12.5496 19.9876 14.5646 19.9876 17.0426L18.9876 17.0426C18.9876 15.1166 17.4206 13.5496 15.4936 13.5496 13.5676 13.5496 12.0006 15.1166 11.9996 17.0426M10.4644 6.527C10.4644 6.803 10.2404 7.027 9.9644 7.027 9.6894 7.027 9.4644 6.803 9.4644 6.527 9.4644 6.251 9.6894 6.027 9.9644 6.027 10.2404 6.027 10.4644 6.251 10.4644 6.527"/>
  </g>
</svg>
