<svg xmlns="http://www.w3.org/2000/svg" width="24" height="24" viewBox="0 0 24 24">
  <path fill="#000000" fill-rule="evenodd" d="M16.8995,16.071125 C17.2895,16.461125 17.2895,17.095125 16.8995,17.485125 C16.5095,17.875125 15.8755,17.875125 15.4855,17.485125 L11.9495,13.950125 L11.2425,14.657125 L14.7785,18.192125 C15.1685,18.582125 15.1685,19.217125 14.7785,19.607125 C14.3885,19.996125 13.7535,19.996125 13.3635,19.607125 L9.8285,16.071125 L9.1215,16.778125 L12.6565,20.314125 C13.0465,20.704125 13.0465,21.338125 12.6565,21.728125 C12.2665,22.118125 11.6325,22.118125 11.2425,21.728125 L2.7575,13.243125 C0.4175,10.903125 0.4175,7.09712502 2.7575,4.75712502 C5.0965,2.41812502 8.9035,2.41812502 11.2425,4.75712502 L7.3535,8.64612502 C6.7675,9.23212502 6.7675,10.182125 7.3535,10.768125 C7.4265,10.841125 7.5055,10.905125 7.5885,10.960125 C8.9645,12.115125 11.0095,12.061125 12.3035,10.768125 L14.0715,9.00012502 L19.0205,13.950125 C19.4105,14.340125 19.4105,14.974125 19.0205,15.364125 C18.6305,15.754125 17.9965,15.754125 17.6065,15.364125 L14.0715,11.828125 L13.3635,12.535125 L16.8995,16.071125 Z M21.1425,4.75712502 C23.4815,7.09712502 23.4815,10.903125 21.1425,13.243125 C21.1405,13.244125 21.1395,13.245125 21.1385,13.246125 L21.1385,13.246125 L20.2385,14.146125 C20.1515,13.816125 19.9865,13.501125 19.7275,13.243125 L15.4285,8.94312502 C16.3425,8.96212502 17.2615,8.63812502 17.9605,7.93912502 C18.0815,7.81812502 18.1815,7.68612502 18.2815,7.55312502 L17.5675,6.84012502 C17.4765,6.97812502 17.3745,7.11112502 17.2535,7.23212502 C16.3995,8.08612502 15.0775,8.19212502 14.1065,7.55012502 L14.0715,7.58612502 L13.3995,8.25712502 L13.3635,8.29312502 L11.5965,10.061125 C10.6795,10.977125 9.2335,11.035125 8.2325,10.194125 L8.1875,10.157125 L8.1395,10.125125 C8.1115,10.107125 8.0855,10.085125 8.0605,10.061125 C7.8655,9.86612502 7.8655,9.54812502 8.0605,9.35312502 L8.4145,9.00012502 L8.7675,8.64612502 L9.4745,7.93912502 L12.6565,4.75712502 C14.9965,2.41812502 18.8025,2.41812502 21.1425,4.75712502 L21.1425,4.75712502 Z M21.8495,4.05012502 C19.1155,1.31712502 14.6835,1.31612502 11.9495,4.05012502 C9.2165,1.31612502 4.7835,1.31712502 2.0505,4.05012502 C-0.6835,6.78412502 -0.6835,11.216125 2.0505,13.950125 L10.5355,22.435125 C11.3165,23.216125 12.5825,23.216125 13.3635,22.435125 C13.7885,22.010125 13.9745,21.442125 13.9365,20.887125 C14.4925,20.924125 15.0605,20.738125 15.4855,20.314125 C15.9105,19.889125 16.0955,19.321125 16.0585,18.765125 C16.6135,18.803125 17.1815,18.617125 17.6065,18.192125 C18.0315,17.767125 18.2165,17.200125 18.1795,16.644125 C18.7325,16.681125 19.2965,16.497125 19.7205,16.077125 L19.7215,16.077125 L21.8495,13.950125 C24.5825,11.216125 24.5825,6.78412502 21.8495,4.05012502 L21.8495,4.05012502 Z"/>
</svg>
