<svg xmlns="http://www.w3.org/2000/svg" width="24" height="24" viewBox="0 0 24 24">
  <g fill="#000000" fill-rule="evenodd" transform="translate(1 1)">
    <path d="M14.0054 20.41L16.9854 20.41 16.9954 18.221 19.3344 15.986C19.6494 15.73 19.8574 15.427 19.9694 15.079 20.0084 14.958 20.0344 14.833 20.0484 14.707L20.0034 7.927C20.0034 7.655 19.7844 7.436 19.5154 7.436 19.2464 7.436 19.0274 7.655 19.0274 7.924L19.0054 11.234C19.0164 11.245 19.0264 11.256 19.0354 11.266 19.2754 11.534 19.3954 11.879 19.3744 12.237 19.3554 12.596 19.1954 12.925 18.9284 13.164L16.6054 15.178 15.9504 14.422 18.2684 12.413C18.4034 12.292 18.4154 12.074 18.2894 11.932 18.2284 11.864 18.1444 11.823 18.0524 11.818 17.9594 11.817 17.8714 11.844 17.8034 11.905L14.8794 14.458C14.4464 14.846 14.2344 15.147 14.1284 15.527 14.0774 15.707 14.0444 16.347 14.0204 16.813L14.0094 17.009C13.9844 17.464 13.9984 19.467 14.0054 20.41L14.0054 20.41zM17.9824 21.41L13.0154 21.41 13.0104 20.915C13.0094 20.779 12.9774 17.584 13.0114 16.956L13.0214 16.762C13.0614 16.003 13.0904 15.523 13.1654 15.257 13.3264 14.683 13.6314 14.235 14.2164 13.709L17.1414 11.155C17.3894 10.934 17.6974 10.823 18.0084 10.817L18.0274 7.921C18.0274 7.103 18.6944 6.436 19.5154 6.436 20.3354 6.436 21.0034 7.103 21.0034 7.924L21.0454 14.757C21.0224 15.007 20.9814 15.2 20.9204 15.387 20.7494 15.919 20.4294 16.387 19.9934 16.737L17.9934 18.65 17.9824 21.41zM5.0113 20.41L7.9903 20.41C7.9983 19.467 8.0113 17.465 7.9873 17.01L7.9763 16.811C7.9513 16.345 7.9183 15.705 7.8683 15.527 7.7613 15.147 7.5493 14.846 7.1123 14.453L4.1973 11.909C4.1233 11.844 4.0193 11.817 3.9453 11.818 3.8533 11.823 3.7693 11.864 3.7073 11.932 3.5803 12.074 3.5933 12.292 3.7343 12.418L6.0453 14.422 5.3913 15.178 3.0743 13.169C2.8003 12.925 2.6413 12.596 2.6213 12.237 2.6023 11.879 2.7223 11.534 2.9613 11.266 2.9713 11.256 2.9813 11.245 2.9913 11.234L2.9683 7.928C2.9683 7.655 2.7493 7.436 2.4813 7.436 2.2123 7.436 1.9933 7.655 1.9933 7.924L1.9503 14.763C1.9613 14.829 1.9883 14.956 2.0283 15.081 2.1383 15.426 2.3473 15.73 2.6303 15.958L5.0013 18.221 5.0113 20.41zM8.9813 21.41L4.0153 21.41 4.0033 18.65 1.9713 16.709C1.5673 16.386 1.2463 15.919 1.0753 15.386 1.0153 15.196.9753 15.005.9533 14.815L.9933 7.921C.9933 7.103 1.6603 6.436 2.4813 6.436 3.3013 6.436 3.9683 7.103 3.9683 7.924L3.9893 10.818C4.2993 10.824 4.6103 10.936 4.8593 11.159L7.7753 13.704C8.3653 14.234 8.6693 14.682 8.8313 15.257 8.9063 15.523 8.9353 16.003 8.9753 16.759L8.9853 16.956C9.0203 17.584 8.9873 20.779 8.9863 20.915L8.9813 21.41zM11.0005.5897C9.6235.5897 8.5085 1.7057 8.5085 3.0817 8.5085 4.4577 9.6235 5.5737 11.0005 5.5737 12.3765 5.5737 13.4925 4.4577 13.4925 3.0817 13.4925 1.7057 12.3765.5897 11.0005.5897M11.0005 1.5897C11.8225 1.5897 12.4925 2.2597 12.4925 3.0817 12.4925 3.9047 11.8225 4.5737 11.0005 4.5737 10.1775 4.5737 9.5085 3.9047 9.5085 3.0817 9.5085 2.2597 10.1775 1.5897 11.0005 1.5897M7.5054 10.6053L6.5054 10.6053C6.5064 8.1273 8.5234 6.1123 10.9994 6.1123 13.4784 6.1123 15.4934 8.1273 15.4934 10.6053L14.4934 10.6053C14.4934 8.6793 12.9264 7.1123 10.9994 7.1123 9.0734 7.1123 7.5064 8.6793 7.5054 10.6053"/>
  </g>
</svg>
