<svg xmlns="http://www.w3.org/2000/svg" width="24" height="24" viewBox="0 0 24 24" xmlns:xlink="http://www.w3.org/1999/xlink">
  <defs>
    <polygon id="a" points="0 0 20 0 20 17 0 17"/>
  </defs>
  <g fill="none" fill-rule="evenodd" transform="translate(2 3)">
    <mask id="b" fill="white">
      <use xlink:href="#a"/>
    </mask>
    <path fill="#000000" d="M0.909090909,14 L7.72727273,14 C8.42909091,14 9.06272727,14.3 9.54545455,14.778 L9.54545455,3 C9.54545455,1.896 8.73181818,1 7.72727273,1 L0.909090909,1 L0.909090909,14 Z M10.4545455,14.778 C10.9518182,14.279 11.6,14.002 12.2727273,14 L19.0909091,14 L19.0909091,1 L12.2727273,1 C11.2690909,1 10.4545455,1.896 10.4545455,3 L10.4545455,14.778 Z M0,15 L0,0 L7.72727273,0 C8.69,0 9.53,0.551 10.0163636,1.377 C10.5009091,0.558 11.3163636,0 12.2727273,0 L20,0 L20,15 L12.2727273,15 C11.2690909,15 10.4545455,15.896 10.4545455,17 L9.54545455,17 C9.54545455,15.896 8.73181818,15 7.72727273,15 L0,15 Z" mask="url(#b)"/>
  </g>
</svg>
