<svg xmlns="http://www.w3.org/2000/svg" width="24" height="24" viewBox="0 0 24 24">
  <g fill="none" fill-rule="evenodd">
    <g fill="#000000" transform="translate(2.962 1)">
      <path d="M6.993 19.597309C6.993 20.3921192 6.323 21.0389236 5.5 21.0389236L2.494 21.0389236C1.67 21.0389236 1.001 20.3921192 1.001 19.597309L1.001 17.2700625 4.962 17.2700625 4.962 10.5108121 1.001 10.5108121 1.001 8.14560308C1.001 7.35079289 1.67 6.70398847 2.494 6.70398847L5.5 6.70398847C6.323 6.70398847 6.993 7.35079289 6.993 8.14560308L6.993 19.597309zM1.001 16.3089861L3.972 16.3089861 3.972 11.4718885 1.001 11.4718885 1.001 16.3089861zM3.018 5.73041807L4.959 5.73041807 4.959.893320519 3.018.893320519 3.018 5.73041807zM5.989 0L1.989 0 1.989 5.79288803C.857 6.01874099.005 6.98750601.005 8.14560308L.005 10.5108121 0 10.5108121 0 17.2700625.005 17.2700625.005 19.597309C.005 20.9226333 1.121 22 2.494 22L5.5 22C6.873 22 7.989 20.9226333 7.989 19.597309L7.989 8.14560308C7.989 6.98270062 7.128 6.0100913 5.989 5.79096588L5.989 0zM11.139 3.41905662L11.153 11.3870566 15.676 11.3780566 15.662 3.41005662 11.139 3.41905662zM10.654 12.4120566C10.522 12.4120566 10.395 12.3580566 10.301 12.2640566 10.206 12.1670566 10.154 12.0370566 10.154 11.9010566L10.138 2.90805662C10.138 2.77305662 10.19 2.64305662 10.284 2.54605662 10.377 2.44905662 10.504 2.39505662 10.637 2.39505662L16.16 2.38505662 16.161 2.38505662C16.437 2.38505662 16.66 2.61405662 16.661 2.89705662L16.6770033 11.8880566C16.678 12.1710566 16.454 12.4000566 16.178 12.4010566L10.655 12.4120566 10.654 12.4120566z"/>
      <polygon points="12.293 7.4 13.422 9.097 14.522 7.396 13.416 5.699"/>
      <path d="M19.1439,3.24225662 C19.0819,3.12525662 18.9749,3.03825662 18.8469,3.00025662 L13.5539,1.42025662 C13.2909,1.34325662 13.0109,1.49225662 12.9319,1.75725662 L12.4699,3.30325662 L13.5139,3.30325662 L13.7479,2.52125662 L16.3649,3.30325662 L16.3899,3.30325662 L16.3899,3.30925662 L18.0819,3.81525662 L16.4809,9.17925662 L16.4809,12.2942566 C16.5689,12.2322566 16.6389,12.1432566 16.6719,12.0322566 L19.1839,3.62325662 C19.2209,3.49525662 19.2069,3.35825662 19.1439,3.24225662"/>
      <path d="M15.138,21.5 C14.311,21.5 13.638,20.827 13.638,20 L13.638,18 L16.638,18 L16.638,20 C16.638,20.827 15.965,21.5 15.138,21.5 L15.138,21.5 Z M13.638,15 C13.638,14.173 14.311,13.5 15.138,13.5 C15.965,13.5 16.638,14.173 16.638,15 L16.638,17 L13.638,17 L13.638,15 Z M15.138,12.5 C13.763,12.5 12.638,13.625 12.638,15 L12.638,17 L12.638,18 L12.638,20 C12.638,21.375 13.763,22.5 15.138,22.5 C16.513,22.5 17.638,21.375 17.638,20 L17.638,15 C17.638,13.625 16.513,12.5 15.138,12.5 L15.138,12.5 Z" transform="rotate(-90 15.138 17.5)"/>
    </g>
    <g fill="#000000" transform="translate(2.962 1)">
      <path d="M6.993 19.597309C6.993 20.3921192 6.323 21.0389236 5.5 21.0389236L2.494 21.0389236C1.67 21.0389236 1.001 20.3921192 1.001 19.597309L1.001 17.2700625 4.962 17.2700625 4.962 10.5108121 1.001 10.5108121 1.001 8.14560308C1.001 7.35079289 1.67 6.70398847 2.494 6.70398847L5.5 6.70398847C6.323 6.70398847 6.993 7.35079289 6.993 8.14560308L6.993 19.597309zM1.001 16.3089861L3.972 16.3089861 3.972 11.4718885 1.001 11.4718885 1.001 16.3089861zM3.018 5.73041807L4.959 5.73041807 4.959.893320519 3.018.893320519 3.018 5.73041807zM5.989 0L1.989 0 1.989 5.79288803C.857 6.01874099.005 6.98750601.005 8.14560308L.005 10.5108121 0 10.5108121 0 17.2700625.005 17.2700625.005 19.597309C.005 20.9226333 1.121 22 2.494 22L5.5 22C6.873 22 7.989 20.9226333 7.989 19.597309L7.989 8.14560308C7.989 6.98270062 7.128 6.0100913 5.989 5.79096588L5.989 0zM11.139 3.41905662L11.153 11.3870566 15.676 11.3780566 15.662 3.41005662 11.139 3.41905662zM10.654 12.4120566C10.522 12.4120566 10.395 12.3580566 10.301 12.2640566 10.206 12.1670566 10.154 12.0370566 10.154 11.9010566L10.138 2.90805662C10.138 2.77305662 10.19 2.64305662 10.284 2.54605662 10.377 2.44905662 10.504 2.39505662 10.637 2.39505662L16.16 2.38505662 16.161 2.38505662C16.437 2.38505662 16.66 2.61405662 16.661 2.89705662L16.6770033 11.8880566C16.678 12.1710566 16.454 12.4000566 16.178 12.4010566L10.655 12.4120566 10.654 12.4120566z"/>
      <polygon points="12.293 7.4 13.422 9.097 14.522 7.396 13.416 5.699"/>
      <path d="M19.1439,3.24225662 C19.0819,3.12525662 18.9749,3.03825662 18.8469,3.00025662 L13.5539,1.42025662 C13.2909,1.34325662 13.0109,1.49225662 12.9319,1.75725662 L12.4699,3.30325662 L13.5139,3.30325662 L13.7479,2.52125662 L16.3649,3.30325662 L16.3899,3.30325662 L16.3899,3.30925662 L18.0819,3.81525662 L16.4809,9.17925662 L16.4809,12.2942566 C16.5689,12.2322566 16.6389,12.1432566 16.6719,12.0322566 L19.1839,3.62325662 C19.2209,3.49525662 19.2069,3.35825662 19.1439,3.24225662"/>
      <path d="M15.138,21.5 C14.311,21.5 13.638,20.827 13.638,20 L13.638,18 L16.638,18 L16.638,20 C16.638,20.827 15.965,21.5 15.138,21.5 L15.138,21.5 Z M13.638,15 C13.638,14.173 14.311,13.5 15.138,13.5 C15.965,13.5 16.638,14.173 16.638,15 L16.638,17 L13.638,17 L13.638,15 Z M15.138,12.5 C13.763,12.5 12.638,13.625 12.638,15 L12.638,17 L12.638,18 L12.638,20 C12.638,21.375 13.763,22.5 15.138,22.5 C16.513,22.5 17.638,21.375 17.638,20 L17.638,15 C17.638,13.625 16.513,12.5 15.138,12.5 L15.138,12.5 Z" transform="rotate(-90 15.138 17.5)"/>
    </g>
  </g>
</svg>
