<svg xmlns="http://www.w3.org/2000/svg" width="24" height="24" viewBox="0 0 24 24">
  <g fill="#000000" fill-rule="evenodd" transform="translate(2 1)">
    <path d="M13.4661136 3.72838644L14.1731136 4.43538644 12.7591136 5.84938644 12.0511136 5.14338644 4.27311356 12.9213864 4.98011356 13.6283864 2.86411356 15.7453864 3.92411356 16.8063864 1.09700678 19.6334932 1.80300678 20.3414932 4.63211356 17.5123864 5.69211356 18.5743864 7.81011356 16.4563864 8.51611356 17.1633864 16.2951136 9.38438644 15.5871136 8.67838644 17.0021136 7.26338644 17.7091136 7.97138644 18.4161136 7.26338644 14.1731136 3.02238644 13.4661136 3.72838644zM13.4711136 6.55238644L14.8811136 5.14338644 16.2951136 6.55738644 14.8841136 7.96738644 13.4711136 6.55238644zM5.68811356 12.9213864L12.0511136 6.55738644 14.8811136 9.38438644 13.4711136 10.7953864 12.0571136 9.38138644 11.3491136 10.0873864 12.7631136 11.5023864 12.0571136 12.2093864 10.6431136 10.7953864 9.93411356 11.5023864 11.3491136 12.9163864 10.6431136 13.6233864 9.22711356 12.2093864 8.52111356 12.9163864 9.93411356 14.3303864 8.51611356 15.7493864 5.68811356 12.9213864zM4.27811356 15.7453864L5.68811356 14.3353864 7.10211356 15.7493864 5.69211356 17.1593864 4.27811356 15.7453864zM2.14340678 7.97187966C1.55840678 7.38687966 1.55840678 6.43587966 2.14340678 5.85087966L3.55740678 4.43687966 5.67840678 6.55787966 4.26440678 7.97187966C3.67940678 8.55687966 2.72840678 8.55687966 2.14340678 7.97187966L2.14340678 7.97187966zM5.67840678 2.31487966C6.26340678 1.72987966 7.21540678 1.72987966 7.80040678 2.31487966 8.38540678 2.89987966 8.38540678 3.85187966 7.80040678 4.43687966L6.38640678 5.85087966 4.26440678 3.72887966 5.67840678 2.31487966zM8.50740678 1.60787966C7.53540678.635879656 5.94440678.635879656 4.97140678 1.60787966L3.55740678 3.02187966 2.85040678 3.72887966 1.43640678 5.14387966C.463406781 6.11587966.463406781 7.70587966 1.43640678 8.67887966 2.40940678 9.65187966 3.99940678 9.65187966 4.97140678 8.67887966L8.50740678 5.14387966C9.47940678 4.17087966 9.47940678 2.57987966 8.50740678 1.60787966L8.50740678 1.60787966zM15.2343203 18.2249932C14.5773203 17.5679932 14.4803203 16.5669932 14.9303203 15.7999932L17.6583203 18.5279932C16.8923203 18.9779932 15.8903203 18.8819932 15.2343203 18.2249932M18.0623203 15.3969932C18.7193203 16.0529932 18.8153203 17.0549932 18.3653203 17.8209932L15.6373203 15.0929932C16.4043203 14.6429932 17.4053203 14.7399932 18.0623203 15.3969932M18.7693203 14.6889932C17.5973203 13.5179932 15.6983203 13.5179932 14.5263203 14.6889932 13.3553203 15.8609932 13.3553203 17.7599932 14.5263203 18.9319932 15.6983203 20.1039932 17.5973203 20.1039932 18.7693203 18.9319932 19.9413203 17.7599932 19.9413203 15.8609932 18.7693203 14.6889932"/>
  </g>
</svg>
