<?xml version="1.0" encoding="UTF-8"?>
<svg width="24px" height="24px" viewBox="0 0 24 24" version="1.1" xmlns="http://www.w3.org/2000/svg" xmlns:xlink="http://www.w3.org/1999/xlink">
    <title>Topic-Icons/18_b</title>
    <g id="Topic-Icons/18_b" stroke="none" stroke-width="1" fill="none" fill-rule="evenodd">
        <path d="M18.2187263,6.01335813 C18.4948687,6.01335813 18.7187263,6.23721575 18.7187263,6.51335813 L18.7190095,9.09021762 C18.9593055,9.11366505 19.1910753,9.18190473 19.4041498,9.29093024 C20.0405322,9.61655313 20.4498671,10.2719814 20.4498671,11 C20.4498671,11.9961876 19.6907622,12.8150768 18.7194428,12.909777 L18.7187263,15.540851 C18.7187263,15.8169934 18.4948687,16.040851 18.2187263,16.040851 L18.1474557,16.0345226 C18.046998,16.05231 17.9405206,16.0334882 17.8457228,15.9729319 C16.2530007,14.95551 14.8097691,14.4526026 13.5171661,14.4526026 L11.4994492,14.4522764 L11.5,17.4474194 C11.5,18.2134302 10.9141491,18.6016065 10.0126752,18.6016065 C9.11631604,18.6016065 8.52906428,18.220943 8.50345691,17.4474194 L8.50344925,14.4712764 L6.31618359,14.4715121 C5.29294667,14.4715121 4.46344925,13.5760816 4.46344925,12.4715121 L4.46344925,9.59368789 C4.46344925,8.48911839 5.29294667,7.59368789 6.31618359,7.59368789 L9.46583198,7.59368789 L13.5171661,7.60160647 C14.8097691,7.60160647 16.2530007,7.0986991 17.8457228,6.08127719 C17.9405206,6.02072088 18.046998,6.00189908 18.1474557,6.01968655 L18.2187263,6.01335813 Z M10.4994492,14.4522764 L9.50344925,14.4522764 L9.50317714,17.4306954 C9.50704087,17.5461452 9.5926013,17.6016065 10.0126752,17.6016065 C10.4276344,17.6016065 10.5,17.553658 10.5,17.4474194 L10.4994492,14.4522764 Z M13.5171661,8.60160647 L9.50344925,8.60127638 L9.50344925,13.4522764 L13.5171661,13.4526026 C14.8185966,13.4526026 16.2187367,13.8886205 17.7183771,14.7525939 L17.7183771,7.30161523 C16.2187367,8.16558862 14.8185966,8.60160647 13.5171661,8.60160647 Z M8.50344925,8.59327638 L6.31618359,8.59368789 C5.84110931,8.59368789 5.44956047,8.97972808 5.39604877,9.47706676 L5.38981642,9.59368789 L5.38981642,12.4715121 C5.38981642,13.0237969 5.80456513,13.4715121 6.31618359,13.4715121 L8.50344925,13.4702764 L8.50344925,8.59327638 Z M18.7196582,10.1003737 L18.7198744,11.8994766 C19.1367483,11.8123596 19.4498671,11.4427462 19.4498671,11 C19.4498671,10.6510672 19.2539658,10.3373895 18.9486386,10.1811603 C18.8762594,10.1441254 18.7994635,10.1169763 18.7196582,10.1003737 Z" id="Combined-Shape" fill="#000000" fill-rule="nonzero"></path>
    </g>
</svg>