<svg xmlns="http://www.w3.org/2000/svg" width="24" height="24" viewBox="0 0 24 24">
  <g fill="#000000" fill-rule="evenodd" transform="translate(2 1)">
    <path d="M9.9918,-0.0001 L-0.0002,6.0969 L-0.0002,21.0649 L19.9998,21.0649 L19.9998,6.0959 L9.9918,-0.0001 Z M0.9998,6.5769 L9.9918,1.2809 L19.0008,6.5769 L19.0008,20.0659 L0.9998,20.0659 L0.9998,6.5769 Z"/>
    <path d="M7.2733,7.9592 C6.6743,7.9592 6.0463,8.2672 5.5933,8.7832 C5.0793,9.3692 4.8543,10.1342 4.9593,10.9372 C5.2163,12.8982 8.4813,15.9532 10.0103,16.9882 C11.0053,16.3412 14.8143,13.2922 15.1233,10.9372 C15.2283,10.1342 15.0033,9.3692 14.4893,8.7832 C14.0363,8.2672 13.4083,7.9592 12.8093,7.9592 C11.2733,7.9592 10.3863,9.2942 10.3773,9.3082 L10.0033,9.8832 L9.6243,9.3112 C9.6143,9.2972 8.7133,7.9592 7.2733,7.9592 L7.2733,7.9592 Z M9.9983,18.0572 L9.7603,17.9032 C9.5423,17.7622 4.4483,13.9612 4.0663,11.0542 C3.9273,9.9902 4.2293,8.9732 4.9173,8.1892 C5.5383,7.4812 6.4193,7.0592 7.2733,7.0592 C8.5783,7.0592 9.5143,7.8272 9.9993,8.3502 C10.4863,7.8262 11.4363,7.0592 12.8093,7.0592 C13.6633,7.0592 14.5443,7.4812 15.1653,8.1892 C15.8533,8.9732 16.1543,9.9902 16.0153,11.0542 C15.6053,14.1822 10.4573,17.7772 10.2393,17.9102 L9.9983,18.0572 Z"/>
  </g>
</svg>
