<svg xmlns="http://www.w3.org/2000/svg" width="24" height="24" viewBox="0 0 24 24">
  <g fill="none" fill-rule="evenodd">
    <polygon fill="#000000" points="4 17 6 17 6 16 4 16"/>
    <polygon fill="#000000" points="4 14 6 14 6 13 4 13"/>
    <polygon fill="#000000" points="10 14 12 14 12 13 10 13"/>
    <polygon fill="#000000" points="7 14 9 14 9 13 7 13"/>
    <polygon fill="#000000" points="7 17 9 17 9 16 7 16"/>
    <polygon fill="#000000" points="7 11 9 11 9 10 7 10"/>
    <polygon fill="#000000" points="7 8 9 8 9 7 7 7"/>
    <polygon fill="#000000" points="10 8 12 8 12 7 10 7"/>
    <polygon fill="#000000" points="7.004 5 9.005 5 9.005 4 7.004 4"/>
    <polygon fill="#000000" points="10 5 12 5 12 4 10 4"/>
    <polygon fill="#000000" points="4 11 6 11 6 10 4 10"/>
    <polygon fill="#000000" points="10 11 12 11 12 10 10 10"/>
    <polygon fill="#000000" points="4 8 6 8 6 7 4 7"/>
    <polygon fill="#000000" points="3.999 5 5.999 5 5.999 4 3.999 4"/>
    <polygon fill="#000000" points="17 19 19 19 19 17 17 17"/>
    <polygon fill="#000000" points="13 19 15 19 15 17 13 17"/>
    <path fill="#000000" d="M2,2.0002 L2,21.0002 L10,21.0002 L10,22.0002 L22,22.0002 L22,15.9992 L15.999,12.0002 L14,13.3142 L14,2.0002 L2,2.0002 Z M3,2.9902 L13,2.9902 L13,13.9792 L10,15.9992 L10,20.0002 L3,20.0002 L3,2.9902 Z M11,16.4802 L13,15.1802 L13.554,14.8262 L15.999,13.2802 L21,16.4802 L21,21.0002 L11,21.0002 L11,16.4802 Z"/>
  </g>
</svg>
