<svg xmlns="http://www.w3.org/2000/svg" width="24" height="24" viewBox="0 0 24 24">
  <g fill="#000000" fill-rule="evenodd" transform="translate(1 1)">
    <path d="M14.515,8.0963 L13.656,8.0963 L12.217,6.5963 L14.515,6.5963 C14.928,6.5963 15.265,6.9333 15.265,7.3463 C15.265,7.7593 14.928,8.0963 14.515,8.0963 M14.515,10.5963 L11.486,10.5963 C11.246,10.5963 11.042,10.4753 10.905,10.2993 C11.031,10.3223 11.158,10.3423 11.287,10.3453 C11.305,10.3463 11.324,10.3463 11.341,10.3463 C11.99,10.3463 12.601,10.1003 13.07,9.6503 L13.648,9.0963 L14.515,9.0963 C14.928,9.0963 15.265,9.4333 15.265,9.8463 C15.265,10.2593 14.928,10.5963 14.515,10.5963 M14.515,13.0963 L11.486,13.0963 C11.073,13.0963 10.736,12.7593 10.736,12.3463 C10.736,11.9333 11.073,11.5963 11.486,11.5963 L14.515,11.5963 C14.928,11.5963 15.265,11.9333 15.265,12.3463 C15.265,12.7593 14.928,13.0963 14.515,13.0963 M14.515,15.6053 L13.256,15.6053 L13.256,15.5993 L11.456,15.5993 C11.058,15.5823 10.736,15.2573 10.736,14.8553 C10.736,14.4423 11.073,14.1053 11.486,14.1053 L14.515,14.1053 C14.928,14.1053 15.265,14.4423 15.265,14.8553 C15.265,15.2683 14.928,15.6053 14.515,15.6053 M9.909,15.5993 L5.697,15.5993 C3.102,15.5673 1,13.4513 1,10.8513 C1,8.7603 2.398,6.8853 4.4,6.2913 L4.4,6.2893 L9.147,4.8383 L12.738,8.5833 L12.378,8.9293 C12.089,9.2063 11.706,9.3453 11.308,9.3463 C10.908,9.3373 10.535,9.1733 10.257,8.8843 L8.19,6.7293 L7.737,7.1633 L7.452,7.4253 C7.872,7.8853 8.105,8.4813 8.105,9.1043 C8.105,10.4713 6.993,11.5833 5.626,11.5833 L5.626,12.5833 C7.537,12.5833 9.091,11.0343 9.103,9.1243 L9.536,9.5753 C9.6,9.6433 9.674,9.6973 9.744,9.7553 C9.743,9.7853 9.736,9.8153 9.736,9.8463 C9.736,10.3373 9.941,10.7803 10.269,11.0973 C9.942,11.4143 9.736,11.8553 9.736,12.3463 C9.736,12.8393 9.944,13.2833 10.274,13.6023 C9.944,13.9193 9.736,14.3623 9.736,14.8553 C9.736,15.1213 9.801,15.3723 9.909,15.5993 M16.265,14.8553 C16.265,14.3603 16.055,13.9173 15.723,13.6003 C16.055,13.2833 16.265,12.8403 16.265,12.3463 C16.265,11.8533 16.057,11.4123 15.729,11.0953 C16.057,10.7793 16.265,10.3383 16.265,9.8463 C16.265,9.3533 16.057,8.9123 15.729,8.5953 C16.057,8.2793 16.265,7.8383 16.265,7.3463 C16.265,6.4023 15.512,5.6353 14.577,5.6023 L14.577,5.5963 L11.252,5.5963 L9.446,3.7053 L9.445,3.7013 L4.012,5.3623 L4.02,5.3693 C1.65,6.1203 0,8.3553 0,10.8513 C0,13.8553 2.316,16.3493 5.256,16.6033 L14.583,16.6053 L14.583,16.5983 C15.516,16.5613 16.265,15.7963 16.265,14.8553"/>
    <polygon points="18.081 11.568 21.085 11.568 21.085 10.565 18.081 10.565"/>
    <polygon points="17.579 6.204 18.081 7.072 20.683 5.57 20.181 4.702"/>
    <polygon points="14.24 3.601 15.108 4.102 16.61 1.501 15.742 .999"/>
    <polygon points="17.579 15.929 18.081 15.061 20.683 16.563 20.181 17.431"/>
    <polygon points="14.24 18.532 15.108 18.03 16.61 20.632 15.742 21.134"/>
  </g>
</svg>
