<svg xmlns="http://www.w3.org/2000/svg" width="24" height="24" viewBox="0 0 24 24">
  <g fill="#000000" fill-rule="evenodd">
    <path d="M11.9302,11.7332 C11.3072,12.6232 10.4812,13.2862 9.5752,13.7122 L2.5872,8.8192 C2.6782,7.8222 3.0182,6.8192 3.6412,5.9292 C5.4082,3.4062 8.7042,2.6542 10.9912,4.2542 C13.2762,5.8542 13.6972,9.2102 11.9302,11.7332 M5.6972,13.9742 L5.0522,13.7472 L4.6592,14.3062 L2.2042,17.8142 L1.2532,17.1482 L3.7092,13.6412 L4.1012,13.0812 L3.6672,12.5532 C3.0482,11.8002 2.7012,10.8842 2.5962,9.9242 L8.5342,14.0822 C7.5942,14.3112 6.6162,14.2982 5.6972,13.9742 M11.5062,3.5172 C8.8102,1.6292 4.9582,2.4782 2.9042,5.4132 C1.1682,7.8912 1.2752,11.0602 2.9722,13.1252 L0.0002,17.3692 L2.4252,19.0672 L5.3972,14.8232 C7.9172,15.7122 10.9322,14.7282 12.6672,12.2502 C14.7222,9.3142 14.2022,5.4052 11.5062,3.5172"/>
    <path d="M2.397,0.0953 C1.283,0.0953 0.376,1.0023 0.376,2.1163 C0.376,3.2303 1.283,4.1363 2.397,4.1363 C3.51,4.1363 4.418,3.2303 4.418,2.1163 C4.418,1.0023 3.51,0.0953 2.397,0.0953" transform="translate(4 .904)"/>
    <path d="M21.0513,19.0291 C21.2023,18.3271 21.2873,17.6171 21.2873,16.9791 C21.2873,14.8131 20.5433,12.7291 19.1963,11.0491 C20.1083,10.6751 21.0903,10.4661 22.1053,10.4271 C22.6173,11.4811 22.9133,12.6601 22.9133,13.9091 C22.9133,15.8561 22.2123,17.6411 21.0513,19.0291 M19.6023,20.3751 C18.5863,21.1131 17.3943,21.6141 16.0983,21.8071 C16.4973,20.7461 16.7073,19.6311 16.7073,18.4761 C16.7073,16.8891 16.2973,15.3351 15.5443,13.9491 C16.2803,12.9271 17.2073,12.0921 18.2723,11.4941 C19.5703,13.0261 20.2873,14.9651 20.2873,16.9791 C20.2873,18.0401 20.0243,19.3181 19.6023,20.3751 M14.9773,21.9011 C14.9563,21.9011 14.9383,21.9041 14.9183,21.9041 C11.2793,21.9041 8.2063,19.4591 7.2413,16.1261 C9.0763,17.8391 11.5263,18.8941 13.9003,18.8941 C14.5073,18.8941 15.1063,18.8181 15.6953,18.7051 C15.6663,19.8181 15.4233,20.8901 14.9773,21.9011 M14.9183,4.9131 C14.2663,4.9131 13.6313,4.9861 13.0183,5.1181 C13.2043,5.4171 13.3623,5.7301 13.4903,6.0571 C13.9553,5.9721 14.4293,5.9131 14.9183,5.9131 C15.4423,5.9131 15.9513,5.9671 16.4473,6.0631 C15.5053,6.3781 14.6383,6.8441 13.8563,7.4191 C13.9123,7.8131 13.9333,8.2161 13.9143,8.6221 C15.1133,7.5851 16.6033,6.8841 18.2483,6.6491 C19.5923,7.2681 20.7393,8.2431 21.5583,9.4621 C18.8053,9.7121 16.3183,11.1391 14.7023,13.4101 C13.8093,13.3721 12.9463,13.1971 12.1323,12.8991 C11.8853,13.1751 11.6233,13.4261 11.3453,13.6531 C12.3793,14.0921 13.4943,14.3581 14.6563,14.4071 C15.2123,15.4221 15.5493,16.5411 15.6553,17.6951 C15.0803,17.8161 14.4943,17.8941 13.9003,17.8941 C11.6463,17.8941 9.3103,16.8311 7.6353,15.1181 C7.0833,15.1491 6.5363,15.1001 5.9993,14.9761 C6.5303,19.4391 10.3133,22.9041 14.9183,22.9041 C19.8863,22.9041 23.9133,18.8771 23.9133,13.9091 C23.9133,8.9401 19.8863,4.9131 14.9183,4.9131"/>
  </g>
</svg>
