<svg xmlns="http://www.w3.org/2000/svg" width="24" height="24" viewBox="0 0 24 24" xmlns:xlink="http://www.w3.org/1999/xlink">
  <defs>
    <polygon id="a" points="0 23 23.856 23 23.856 .026 0 .026"/>
  </defs>
  <g fill="none" fill-rule="evenodd" transform="translate(0 -1)">
    <polygon fill="#000000" points="5.911 23.974 6.911 23.974 6.911 19.82 5.911 19.82"/>
    <polygon fill="#000000" points="2.911 23.974 3.911 23.974 3.911 19.82 2.911 19.82"/>
    <g transform="translate(0 .974)">
      <path fill="#000000" d="M4.8839,8.0199 C3.7809,8.0199 2.8879,8.9149 2.8879,10.0169 C2.8879,11.1199 3.7809,12.0139 4.8839,12.0139 C5.9879,12.0139 6.8809,11.1199 6.8809,10.0169 C6.8809,8.9149 5.9879,8.0199 4.8839,8.0199 M4.8839,9.0199 C5.4339,9.0199 5.8809,9.4669 5.8809,10.0169 C5.8809,10.5669 5.4339,11.0139 4.8839,11.0139 C4.3339,11.0139 3.8879,10.5669 3.8879,10.0169 C3.8879,9.4669 4.3339,9.0199 4.8839,9.0199"/>
      <mask id="b" fill="white">
        <use xlink:href="#a"/>
      </mask>
      <path fill="#000000" d="M2.911,19.064 L6.911,19.064 L6.911,13.087 L2.911,13.087 L2.911,19.064 Z M3.911,18.064 L5.911,18.064 L5.911,14.087 L3.911,14.087 L3.911,18.064 Z" mask="url(#b)"/>
      <polygon fill="#000000" points="6.933 13.082 6.345 13.082 5.92 13.36 8.986 18.043 9.822 17.496" mask="url(#b)"/>
      <polygon fill="#000000" points="2.889 13.082 3.477 13.082 3.902 13.36 .836 18.043 0 17.496" mask="url(#b)"/>
      <polygon fill="#000000" points="11.404 22.989 12.404 22.989 12.404 5.976 11.404 5.976" mask="url(#b)"/>
      <polygon fill="#000000" points="11.404 1.962 12.404 1.962 12.404 .025 11.404 .025" mask="url(#b)"/>
      <path fill="#000000" d="M2.216 5.4759L21.507 5.4759C20.364 3.5299 16.37 2.0819 11.862 2.0819 7.353 2.0819 3.359 3.5299 2.216 5.4759L2.216 5.4759zM22.898 6.4759L.825 6.4759.986 5.8519C1.694 3.0879 6.267 1.0819 11.862 1.0819 17.456 1.0819 22.029 3.0879 22.737 5.8519L22.898 6.4759zM18.9767 8.0091C17.8737 8.0091 16.9797 8.9031 16.9797 10.0051 16.9797 11.1091 17.8737 12.0021 18.9767 12.0021 20.0797 12.0021 20.9737 11.1091 20.9737 10.0051 20.9737 8.9031 20.0797 8.0091 18.9767 8.0091M18.9767 9.0091C19.5267 9.0091 19.9737 9.4561 19.9737 10.0051 19.9737 10.5551 19.5267 11.0021 18.9767 11.0021 18.4267 11.0021 17.9797 10.5551 17.9797 10.0051 17.9797 9.4561 18.4267 9.0091 18.9767 9.0091M20.9425 13.0716L16.9375 13.0716 15.9255 21.1763645 21.9645 21.1763645 20.9425 13.0716zM20.0785 14.2324084L20.8075 20.0155561 17.0815 20.0155561 17.8025 14.2324084 20.0785 14.2324084z" mask="url(#b)"/>
      <polygon fill="#000000" points="16.938 23 17.938 23 17.938 20.912 16.938 20.912" mask="url(#b)"/>
      <polygon fill="#000000" points="19.94 23 20.94 23 20.94 20.862 19.94 20.862" mask="url(#b)"/>
      <polygon fill="#000000" points="20.967 13.072 20.379 13.072 19.955 13.349 23.021 18.032 23.857 17.485" mask="url(#b)"/>
      <polygon fill="#000000" points="16.924 13.072 17.511 13.072 17.936 13.349 14.87 18.032 14.034 17.485" mask="url(#b)"/>
    </g>
  </g>
</svg>
