<svg xmlns="http://www.w3.org/2000/svg" width="24" height="24" viewBox="0 0 24 24" xmlns:xlink="http://www.w3.org/1999/xlink">
  <defs>
    <polygon id="a" points="0 .869 15.125 .869 15.125 16 0 16"/>
  </defs>
  <g fill="none" fill-rule="evenodd">
    <g transform="translate(4 3.987)">
      <mask id="b" fill="white">
        <use xlink:href="#a"/>
      </mask>
      <path fill="#020303" d="M4.093,11.9056 C7.479,15.2896 10.112,15.9996 11.723,15.9996 C13.529,15.9996 14.512,15.1566 14.772,14.8976 L15.125,14.5446 L11.432,10.8436 L10.784,11.4926 C10.595,11.6806 10.267,11.6796 10.079,11.4926 L4.507,5.9206 C4.413,5.8256 4.362,5.7016 4.362,5.5676 C4.362,5.4346 4.412,5.3096 4.507,5.2146 L5.155,4.5676 L1.457,0.8686 L1.104,1.2216 C0.943,1.3826 -2.662,5.1476 4.093,11.9056" mask="url(#b)"/>
    </g>
    <path fill="#000000" d="M6.72151302,4.08687921 L10.9934256,4.08687921 C11.269568,4.08687921 11.4934256,4.31073683 11.4934256,4.58687921 L11.4934256,6.08687921 L11.4934256,6.08687921 L6.22151302,6.08687921 L6.22151302,4.58687921 C6.22151302,4.31073683 6.44537064,4.08687921 6.72151302,4.08687921 Z" transform="rotate(45 8.857 5.087)"/>
    <path fill="#000000" d="M16.7072479,14.0974078 L20.9791605,14.0974078 C21.2553029,14.0974078 21.4791605,14.3212654 21.4791605,14.5974078 L21.4791605,16.0974078 L21.4791605,16.0974078 L16.2072479,16.0974078 L16.2072479,14.5974078 C16.2072479,14.3212654 16.4311055,14.0974078 16.7072479,14.0974078 Z" transform="rotate(45 18.843 15.097)"/>
  </g>
</svg>
