<?xml version="1.0" encoding="UTF-8"?>
<svg width="61px" height="61px" viewBox="0 0 61 61" version="1.1" xmlns="http://www.w3.org/2000/svg" xmlns:xlink="http://www.w3.org/1999/xlink">
    <g id="Symbole" stroke="none" stroke-width="1" fill="none" fill-rule="evenodd">
        <g id="Group-20" transform="translate(0.248563, 0.110245)">
            <circle id="Oval" stroke="#015CA9" stroke-width="5" fill="#FFFFFF" cx="30" cy="30" r="27.5"></circle>
            <g id="Group-15" transform="translate(18.751437, 12.889755)" fill-rule="nonzero">
                <path d="M22.4949453,11.1804901 C22.5309453,13.0884901 22.1169453,14.8524901 21.5769453,16.6164901 C20.6769453,19.5144901 19.4169453,22.2504901 18.0309453,24.9324901 C16.5909453,27.7224901 14.9889453,30.4224901 13.2969453,33.0504901 C12.8289453,33.7884901 12.1809453,34.2204901 11.2629453,34.2204901 C10.5969453,34.2204901 10.0389453,33.9324901 9.60694535,33.4284901 C9.51694535,33.3204901 9.42694535,33.1944901 9.35494535,33.0864901 C6.92494535,29.0364901 4.62094535,24.9324901 2.69494535,20.6124901 C1.81294535,18.6144901 1.02094535,16.5804901 0.462945348,14.4564901 C-0.203054652,11.9184901 -0.167054652,9.41649009 0.678945348,6.93249009 C1.75894535,3.92649009 3.42094535,1.52649009 6.42694535,0.554490089 C8.02894535,0.032490089 9.21094535,-0.027509911 10.8849453,0.00849008903 C12.1809453,0.044490089 13.6989453,0.182490089 14.9589453,0.506490089 C16.6869453,0.956490089 18.6969453,2.24049009 19.8849453,3.60849009 C20.8569453,4.72449009 21.7029453,5.92449009 22.0449453,7.34649009 C22.3689453,8.62449009 22.4949453,9.92049009 22.4949453,11.1804901 Z M11.3349453,16.6884901 C14.5209453,16.7424901 17.4729453,14.1504901 17.4729453,10.6044901 C17.4729453,7.00449009 14.5029453,4.48449009 11.3709453,4.4663988 C8.11294535,4.44849009 5.23294535,7.09449009 5.21494535,10.5504901 C5.17894535,13.9704901 8.00494535,16.7424901 11.3349453,16.6884901 Z" id="Shape-Copy" fill="#DB0029"></path>
                <path d="M11.3349453,16.6884901 C8.00494535,16.7244901 5.17894535,13.9704901 5.21494535,10.5324901 C5.23294535,7.07649009 8.11294535,4.43049009 11.3709453,4.4483988 C14.5029453,4.46649009 17.4909453,6.98649009 17.4730263,10.5864901 C17.4549453,14.1504901 14.5209453,16.7424901 11.3349453,16.6884901 Z" id="Path-Copy-2" fill="#FFFFFF"></path>
            </g>
        </g>
    </g>
</svg>