<?xml version="1.0" encoding="UTF-8"?>
<svg xmlns="http://www.w3.org/2000/svg" xmlns:xlink="http://www.w3.org/1999/xlink" width="425.2" height="122.23" viewBox="0 0 425.2 122.23">
<defs>
<clipPath id="clip-0">
<path clip-rule="nonzero" d="M 0.933594 0 L 423.472656 0 L 423.472656 121.464844 L 0.933594 121.464844 Z M 0.933594 0 "/>
</clipPath>
</defs>
<g clip-path="url(#clip-0)">
<path fill-rule="nonzero" fill="rgb(100%, 100%, 100%)" fill-opacity="1" d="M 0.933594 121.464844 L 423.46875 121.464844 L 423.46875 0 L 0.933594 0 L 0.933594 121.464844 "/>
</g>
<path fill-rule="nonzero" fill="rgb(82.148743%, 8.94928%, 17.131042%)" fill-opacity="1" d="M 41.75 63.460938 L 81.527344 63.460938 L 81.527344 73.921875 L 41.75 73.921875 Z M 41.75 47.550781 L 81.535156 47.550781 L 81.535156 58.011719 L 41.75 58.011719 L 41.75 47.550781 "/>
<path fill-rule="nonzero" fill="rgb(17.764282%, 38.25531%, 70.909119%)" fill-opacity="1" d="M 81.535156 99.578125 L 22.820312 99.578125 L 22.820312 21.886719 L 100.519531 21.886719 L 100.519531 43.582031 L 96.753906 43.582031 L 96.753906 25.65625 L 26.589844 25.65625 L 26.589844 95.808594 L 81.535156 95.808594 L 81.535156 99.578125 "/>
<path fill-rule="nonzero" fill="rgb(17.764282%, 38.25531%, 70.909119%)" fill-opacity="1" d="M 386.296875 73.839844 L 401.582031 73.839844 L 401.582031 70.484375 L 390.066406 70.484375 L 390.066406 62.304688 L 400.847656 62.304688 L 400.847656 58.933594 L 390.066406 58.933594 L 390.066406 50.90625 L 401.226562 50.90625 L 401.226562 47.550781 L 386.296875 47.550781 Z M 376.964844 58.933594 L 362.171875 58.933594 L 362.171875 47.550781 L 358.402344 47.550781 L 358.402344 73.878906 L 362.171875 73.878906 L 362.171875 62.417969 L 376.964844 62.417969 L 376.964844 73.878906 L 380.734375 73.878906 L 380.734375 47.550781 L 376.964844 47.550781 Z M 344.691406 70.710938 C 341.636719 70.710938 339.132812 69.78125 337.171875 67.921875 C 335.210938 66.0625 334.230469 63.6875 334.230469 60.796875 C 334.230469 57.933594 335.226562 55.550781 337.21875 53.648438 C 339.210938 51.742188 341.714844 50.792969 344.730469 50.792969 C 347.667969 50.792969 350.675781 51.671875 353.757812 53.429688 L 353.757812 49.378906 C 350.375 47.933594 347.304688 47.210938 344.539062 47.210938 C 340.53125 47.210938 337.164062 48.519531 334.429688 51.128906 C 331.695312 53.742188 330.332031 56.96875 330.332031 60.796875 C 330.332031 63.210938 330.925781 65.453125 332.121094 67.527344 C 333.316406 69.601562 334.933594 71.226562 336.984375 72.410156 C 339.03125 73.589844 341.527344 74.179688 344.464844 74.179688 C 348.082031 74.179688 351.273438 73.425781 354.039062 71.917969 L 354.039062 67.773438 C 350.996094 69.730469 347.882812 70.710938 344.691406 70.710938 M 324.457031 67.40625 C 324.457031 68.398438 324.066406 69.21875 323.28125 69.875 C 322.496094 70.535156 321.511719 70.863281 320.332031 70.863281 C 317.652344 70.863281 315.300781 69.574219 313.261719 66.996094 L 313.261719 71.78125 C 315.398438 73.378906 317.765625 74.179688 320.367188 74.179688 C 322.628906 74.179688 324.464844 73.519531 325.882812 72.199219 C 327.292969 70.882812 328 69.167969 328 67.054688 C 328 64.089844 326.394531 61.648438 323.183594 59.730469 L 320.304688 58.027344 C 319.011719 57.269531 318.074219 56.546875 317.492188 55.859375 C 316.910156 55.171875 316.617188 54.433594 316.617188 53.644531 C 316.617188 52.753906 317.011719 52.027344 317.804688 51.457031 C 318.597656 50.886719 319.609375 50.601562 320.839844 50.601562 C 323.023438 50.601562 325.066406 51.515625 326.964844 53.339844 L 326.964844 49.0625 C 325.128906 47.828125 323.113281 47.210938 320.914062 47.210938 C 318.613281 47.210938 316.746094 47.859375 315.308594 49.152344 C 313.867188 50.445312 313.148438 52.128906 313.148438 54.203125 C 313.148438 55.585938 313.53125 56.808594 314.289062 57.867188 C 315.050781 58.929688 316.328125 60.007812 318.125 61.105469 L 320.988281 62.847656 C 323.300781 64.285156 324.457031 65.804688 324.457031 67.40625 M 304.835938 73.878906 L 308.605469 73.878906 L 308.605469 47.550781 L 304.835938 47.550781 Z M 280.75 50.867188 L 289.085938 50.867188 L 289.085938 73.878906 L 292.875 73.878906 L 292.875 50.867188 L 301.359375 50.867188 L 301.359375 47.511719 L 280.75 47.511719 Z M 273.019531 42.246094 C 272.671875 42.589844 272.5 43.015625 272.5 43.515625 C 272.5 44.007812 272.675781 44.429688 273.03125 44.789062 C 273.378906 45.148438 273.808594 45.324219 274.308594 45.324219 C 274.800781 45.324219 275.214844 45.152344 275.554688 44.808594 C 275.894531 44.460938 276.0625 44.039062 276.0625 43.535156 C 276.0625 43.035156 275.882812 42.605469 275.527344 42.253906 C 275.167969 41.902344 274.742188 41.726562 274.253906 41.726562 C 273.777344 41.726562 273.363281 41.898438 273.019531 42.246094 M 265.761719 42.246094 C 265.417969 42.589844 265.246094 43.015625 265.246094 43.515625 C 265.246094 44.007812 265.421875 44.429688 265.773438 44.789062 C 266.125 45.148438 266.550781 45.324219 267.054688 45.324219 C 267.542969 45.324219 267.960938 45.152344 268.296875 44.808594 C 268.636719 44.460938 268.808594 44.039062 268.808594 43.535156 C 268.808594 43.035156 268.628906 42.605469 268.269531 42.253906 C 267.914062 41.902344 267.488281 41.726562 267 41.726562 C 266.519531 41.726562 266.109375 41.898438 265.761719 42.246094 M 266.441406 62.722656 L 270.382812 53.183594 L 274.628906 62.722656 Z M 257.78125 73.878906 L 261.65625 73.878906 L 264.945312 66.074219 L 276.175781 66.074219 L 279.6875 73.878906 L 283.546875 73.878906 L 271.742188 47.398438 L 269.089844 47.398438 Z M 240.054688 50.867188 L 248.390625 50.867188 L 248.390625 73.878906 L 252.179688 73.878906 L 252.179688 50.867188 L 260.664062 50.867188 L 260.664062 47.511719 L 240.054688 47.511719 Z M 232.8125 73.878906 L 236.582031 73.878906 L 236.582031 47.550781 L 232.8125 47.550781 Z M 218.878906 51.167969 C 219.675781 51.445312 220.292969 51.917969 220.734375 52.589844 C 221.175781 53.265625 221.394531 54.015625 221.394531 54.84375 C 221.394531 55.6875 221.199219 56.4375 220.800781 57.097656 C 220.40625 57.753906 219.851562 58.25 219.144531 58.574219 C 218.433594 58.902344 217.121094 59.066406 215.214844 59.066406 L 213.78125 59.066406 L 213.78125 50.753906 L 214.914062 50.753906 C 216.757812 50.753906 218.082031 50.890625 218.878906 51.167969 M 213.78125 73.878906 L 213.78125 62.417969 L 214.761719 62.417969 C 215.996094 62.417969 216.871094 62.558594 217.394531 62.84375 C 217.914062 63.125 218.5 63.585938 219.148438 64.226562 C 219.796875 64.863281 220.507812 65.726562 221.289062 66.808594 L 222.550781 68.863281 L 223.714844 70.785156 L 224.449219 71.824219 C 224.5625 71.972656 224.636719 72.082031 224.675781 72.144531 L 225.824219 73.878906 L 230.308594 73.878906 L 228.914062 71.992188 C 228.359375 71.238281 227.625 70.113281 226.710938 68.621094 C 225.253906 66.246094 224.121094 64.582031 223.316406 63.625 C 222.511719 62.671875 221.691406 61.917969 220.847656 61.363281 C 222.28125 60.8125 223.378906 59.976562 224.144531 58.859375 C 224.914062 57.738281 225.296875 56.414062 225.296875 54.878906 C 225.296875 52.632812 224.515625 50.847656 222.949219 49.527344 C 221.386719 48.210938 219.273438 47.550781 216.609375 47.550781 L 210.011719 47.550781 L 210.011719 73.878906 Z M 190.386719 62.722656 L 194.324219 53.183594 L 198.574219 62.722656 Z M 181.726562 73.878906 L 185.601562 73.878906 L 188.890625 66.074219 L 200.125 66.074219 L 203.632812 73.878906 L 207.488281 73.878906 L 195.683594 47.398438 L 193.035156 47.398438 Z M 180.023438 54.917969 C 180.023438 56.261719 179.609375 57.296875 178.78125 58.019531 C 177.949219 58.742188 176.769531 59.101562 175.238281 59.101562 L 171.109375 59.101562 L 171.109375 50.867188 L 175.011719 50.867188 C 178.351562 50.867188 180.023438 52.21875 180.023438 54.917969 M 171.109375 73.878906 L 171.109375 62.457031 L 173.898438 62.457031 C 176.386719 62.457031 178.296875 62.191406 179.628906 61.65625 C 180.960938 61.121094 182.007812 60.265625 182.777344 59.082031 C 183.542969 57.902344 183.925781 56.546875 183.925781 55.011719 C 183.925781 52.726562 183.175781 50.90625 181.683594 49.546875 C 180.1875 48.191406 178.183594 47.511719 175.671875 47.511719 L 167.320312 47.511719 L 167.320312 73.878906 Z M 147.105469 51.167969 C 147.902344 51.445312 148.519531 51.917969 148.960938 52.589844 C 149.398438 53.265625 149.621094 54.015625 149.621094 54.84375 C 149.621094 55.6875 149.421875 56.4375 149.027344 57.097656 C 148.632812 57.753906 148.078125 58.25 147.367188 58.574219 C 146.660156 58.902344 145.347656 59.066406 143.4375 59.066406 L 142.007812 59.066406 L 142.007812 50.753906 L 143.136719 50.753906 C 144.984375 50.753906 146.304688 50.890625 147.105469 51.167969 M 142.007812 73.878906 L 142.007812 62.417969 L 142.988281 62.417969 C 144.21875 62.417969 145.097656 62.558594 145.621094 62.84375 C 146.140625 63.125 146.726562 63.585938 147.375 64.226562 C 148.023438 64.863281 148.734375 65.726562 149.511719 66.808594 L 150.773438 68.863281 L 151.941406 70.785156 L 152.675781 71.824219 C 152.789062 71.972656 152.863281 72.082031 152.902344 72.144531 L 154.050781 73.878906 L 158.535156 73.878906 L 157.140625 71.992188 C 156.585938 71.238281 155.851562 70.113281 154.933594 68.621094 C 153.476562 66.246094 152.347656 64.582031 151.542969 63.625 C 150.738281 62.671875 149.914062 61.917969 149.074219 61.363281 C 150.507812 60.8125 151.605469 59.976562 152.371094 58.859375 C 153.136719 57.738281 153.519531 56.414062 153.519531 54.878906 C 153.519531 52.632812 152.738281 50.847656 151.175781 49.527344 C 149.609375 48.210938 147.496094 47.550781 144.832031 47.550781 L 138.238281 47.550781 L 138.238281 73.878906 Z M 119.839844 73.839844 L 135.125 73.839844 L 135.125 70.484375 L 123.609375 70.484375 L 123.609375 62.304688 L 134.390625 62.304688 L 134.390625 58.933594 L 123.609375 58.933594 L 123.609375 50.90625 L 134.765625 50.90625 L 134.765625 47.550781 L 119.839844 47.550781 Z M 104.765625 51.113281 C 105.582031 51.25 106.445312 51.53125 107.355469 51.960938 C 108.269531 52.386719 109.074219 52.933594 109.777344 53.601562 C 111.6875 55.382812 112.644531 57.6875 112.644531 60.515625 C 112.644531 63.394531 111.714844 65.773438 109.855469 67.660156 C 109.277344 68.238281 108.640625 68.722656 107.941406 69.121094 C 107.242188 69.515625 106.375 69.839844 105.332031 70.097656 C 104.289062 70.359375 102.824219 70.484375 100.9375 70.484375 L 96.808594 70.484375 L 96.808594 50.90625 L 100.828125 50.90625 C 102.636719 50.90625 103.949219 50.972656 104.765625 51.113281 M 100.675781 73.839844 C 103.011719 73.839844 104.597656 73.773438 105.425781 73.644531 C 106.253906 73.511719 107.164062 73.25 108.15625 72.859375 C 109.855469 72.21875 111.34375 71.269531 112.625 70.015625 C 113.882812 68.796875 114.847656 67.382812 115.527344 65.773438 C 116.207031 64.167969 116.542969 62.484375 116.542969 60.722656 C 116.542969 58.261719 115.929688 55.988281 114.699219 53.902344 C 113.464844 51.816406 111.808594 50.234375 109.722656 49.160156 C 107.636719 48.085938 104.804688 47.550781 101.222656 47.550781 L 93.039062 47.550781 L 93.039062 73.839844 L 100.675781 73.839844 "/>
<path fill-rule="nonzero" fill="rgb(82.148743%, 8.94928%, 17.131042%)" fill-opacity="1" d="M 139.796875 99.597656 L 139.796875 93.582031 C 139.796875 92.390625 140.054688 91.484375 140.578125 90.863281 C 141.097656 90.246094 141.816406 89.9375 142.722656 89.9375 C 143.441406 89.9375 143.972656 90.085938 144.324219 90.382812 C 144.671875 90.683594 144.902344 91.074219 145.003906 91.558594 C 145.109375 92.042969 145.160156 92.566406 145.160156 93.132812 L 145.160156 99.597656 L 147.039062 99.597656 L 147.039062 92.574219 C 147.039062 91.308594 146.765625 90.285156 146.210938 89.5 C 145.660156 88.71875 144.714844 88.328125 143.375 88.328125 C 142.433594 88.328125 141.679688 88.507812 141.113281 88.863281 C 140.546875 89.222656 140.109375 89.660156 139.796875 90.183594 L 139.304688 88.507812 L 137.917969 88.507812 L 137.917969 99.597656 Z M 134.726562 99.597656 L 134.726562 88.507812 L 131.304688 88.507812 L 131.304688 90.003906 L 132.847656 90.003906 L 132.847656 99.597656 Z M 134.78125 85.992188 C 135.058594 85.714844 135.195312 85.382812 135.195312 84.996094 C 135.195312 84.609375 135.058594 84.28125 134.78125 84.011719 C 134.507812 83.742188 134.175781 83.609375 133.789062 83.609375 C 133.414062 83.609375 133.089844 83.742188 132.816406 84.011719 C 132.539062 84.28125 132.402344 84.609375 132.402344 84.996094 C 132.402344 85.382812 132.539062 85.714844 132.816406 85.992188 C 133.089844 86.265625 133.414062 86.40625 133.789062 86.40625 C 134.175781 86.40625 134.507812 86.265625 134.78125 85.992188 M 130.371094 99.597656 L 130.371094 97.941406 L 129.945312 97.941406 C 129.425781 97.941406 129.105469 97.84375 128.984375 97.648438 C 128.867188 97.457031 128.804688 97.078125 128.804688 96.511719 L 128.804688 84.683594 L 126.925781 84.683594 L 126.925781 96.824219 C 126.925781 97.582031 127 98.164062 127.140625 98.566406 C 127.28125 98.96875 127.542969 99.242188 127.921875 99.382812 C 128.304688 99.527344 128.84375 99.597656 129.542969 99.597656 Z M 121.042969 99.597656 L 121.042969 94.835938 C 121.042969 93.460938 121.292969 92.390625 121.792969 91.613281 C 122.289062 90.839844 123.175781 90.398438 124.441406 90.292969 C 124.546875 90.28125 124.652344 90.273438 124.765625 90.273438 L 125.089844 90.273438 L 125.089844 88.328125 C 124.164062 88.328125 123.371094 88.53125 122.707031 88.941406 C 122.046875 89.351562 121.519531 89.890625 121.132812 90.5625 L 120.527344 88.507812 L 119.164062 88.507812 L 119.164062 99.597656 Z M 108.988281 91.257812 C 109.308594 90.792969 109.714844 90.457031 110.207031 90.25 C 110.699219 90.042969 111.222656 89.9375 111.773438 89.9375 C 112.429688 89.9375 112.992188 90.089844 113.460938 90.394531 C 113.929688 90.703125 114.296875 91.09375 114.554688 91.570312 C 114.816406 92.046875 114.949219 92.546875 114.949219 93.066406 L 108.417969 93.066406 C 108.480469 92.320312 108.667969 91.71875 108.988281 91.257812 M 114.5 99.238281 C 115.246094 98.820312 115.820312 98.292969 116.222656 97.648438 L 114.410156 97.113281 C 114.15625 97.441406 113.820312 97.707031 113.394531 97.90625 C 112.96875 98.109375 112.445312 98.210938 111.816406 98.210938 C 111.371094 98.210938 110.886719 98.101562 110.363281 97.886719 C 109.84375 97.667969 109.390625 97.292969 109.011719 96.757812 C 108.632812 96.21875 108.425781 95.488281 108.394531 94.566406 L 116.9375 94.566406 C 116.996094 93.777344 116.925781 93.007812 116.726562 92.261719 C 116.523438 91.515625 116.203125 90.851562 115.765625 90.261719 C 115.324219 89.671875 114.769531 89.203125 114.097656 88.851562 C 113.429688 88.503906 112.652344 88.328125 111.773438 88.328125 C 110.757812 88.328125 109.847656 88.5625 109.035156 89.03125 C 108.222656 89.5 107.578125 90.164062 107.101562 91.019531 C 106.621094 91.878906 106.382812 92.894531 106.382812 94.074219 C 106.382812 95.164062 106.597656 96.140625 107.023438 97.011719 C 107.445312 97.886719 108.0625 98.578125 108.867188 99.09375 C 109.671875 99.605469 110.65625 99.863281 111.816406 99.863281 C 112.859375 99.863281 113.753906 99.65625 114.5 99.238281 M 95.183594 92.710938 L 99.65625 92.710938 C 100.222656 92.710938 100.695312 92.832031 101.078125 93.078125 C 101.457031 93.324219 101.742188 93.636719 101.925781 94.015625 C 102.113281 94.398438 102.207031 94.804688 102.207031 95.238281 C 102.207031 95.667969 102.109375 96.082031 101.914062 96.476562 C 101.722656 96.871094 101.4375 97.195312 101.066406 97.449219 C 100.691406 97.703125 100.230469 97.832031 99.679688 97.832031 L 95.183594 97.832031 Z M 95.183594 86.425781 L 99.320312 86.425781 C 99.828125 86.425781 100.25 86.542969 100.585938 86.773438 C 100.921875 87.003906 101.175781 87.296875 101.34375 87.65625 C 101.515625 88.015625 101.601562 88.386719 101.601562 88.773438 C 101.601562 89.339844 101.414062 89.863281 101.03125 90.339844 C 100.652344 90.816406 100.082031 91.054688 99.320312 91.054688 L 95.183594 91.054688 Z M 99.457031 99.597656 C 100.542969 99.597656 101.453125 99.386719 102.183594 98.96875 C 102.914062 98.554688 103.460938 98.015625 103.828125 97.359375 C 104.191406 96.703125 104.375 96.019531 104.375 95.304688 C 104.375 94.585938 104.191406 93.898438 103.828125 93.234375 C 103.460938 92.570312 102.90625 92.046875 102.160156 91.65625 C 102.667969 91.226562 103.054688 90.71875 103.324219 90.136719 C 103.59375 89.558594 103.726562 88.96875 103.726562 88.371094 C 103.726562 87.730469 103.566406 87.128906 103.246094 86.570312 C 102.925781 86.011719 102.425781 85.554688 101.746094 85.195312 C 101.070312 84.839844 100.1875 84.660156 99.097656 84.660156 L 93.082031 84.660156 L 93.082031 99.597656 L 99.457031 99.597656 "/>
</svg>
