<svg xmlns="http://www.w3.org/2000/svg" width="126" height="126" viewBox="0 0 126 126">
  <defs>
    <filter id="a" width="119.5%" height="134%" x="-9.8%" y="-17%" filterUnits="objectBoundingBox">
      <feOffset dy="2" in="SourceAlpha" result="shadowOffsetOuter1"/>
      <feGaussianBlur stdDeviation="2" in="shadowOffsetOuter1" result="shadowBlurOuter1"/>
      <feColorMatrix values="0 0 0 0 0 0 0 0 0 0 0 0 0 0 0 0 0 0 0.5 0" in="shadowBlurOuter1" result="shadowMatrixOuter1"/>
      <feMerge>
        <feMergeNode in="shadowMatrixOuter1"/>
        <feMergeNode in="SourceGraphic"/>
      </feMerge>
    </filter>
  </defs>
  <g fill="none" fill-rule="evenodd" filter="url(#a)" transform="translate(3 8)">
    <circle cx="60.325" cy="53.05" r="52.126" fill="#F5F9FF" stroke="#015CA9" stroke-width="13.253"/>
    <path fill="#3F3F3F" fill-rule="nonzero" d="M37.2713495,40.6854994 L34.0527496,40.6854994 L34.0527496,37.4459995 L37.4385495,37.4459995 L37.4385495,35.0633995 L31.3148496,35.0633995 L31.3148496,49.1499993 L37.6893495,49.1499993 L37.6893495,46.7673994 L34.0527496,46.7673994 L34.0527496,42.9635994 L37.2713495,42.9635994 L37.2713495,40.6854994 Z M42.0365495,49.1499993 L42.0365495,38.9298994 L39.2986495,38.9298994 L39.2986495,49.1499993 L42.0365495,49.1499993 Z M40.6362495,34.7289995 C39.8838495,34.7289995 39.2150495,35.2932995 39.2359495,36.2128995 C39.2150495,37.0906995 39.8420495,37.6967995 40.5944495,37.6967995 C41.4304495,37.6967995 42.0574495,37.0906995 42.0365495,36.2128995 C42.0365495,35.2932995 41.4304495,34.7289995 40.6362495,34.7289995 Z M43.9593494,49.1499993 L46.6972494,49.1499993 L46.6972494,42.9217994 C46.6972494,42.581428 46.7433147,42.2871219 46.8091223,42.0783656 L46.8435494,41.9812994 C47.0316494,41.3751994 47.4078494,41.0616994 47.8676494,41.0616994 C48.6618494,41.0616994 48.8708494,41.8767994 48.8708494,42.7545994 L48.8708494,49.1499993 L51.6087494,49.1499993 L51.6087494,42.5873994 C51.6087494,40.3092994 50.8354494,38.7626995 48.8917494,38.7626995 C47.8258494,38.7626995 46.9480494,39.2851994 46.4046494,40.1002994 L46.3628494,40.1002994 L46.2374494,38.9298994 L43.8757494,38.9298994 L43.9067124,39.9029105 C43.9314828,40.5624217 43.9593494,41.2497994 43.9593494,42.0021994 L43.9593494,49.1499993 Z M56.7501493,49.1499993 L56.7501493,40.8735994 L58.5266493,40.8735994 L58.5266493,38.9298994 L56.7501493,38.9298994 L56.7501493,38.4491995 C56.7501493,37.5504995 57.0845493,36.7562995 58.0041493,36.7562995 C58.3385493,36.7562995 58.6311493,36.7980995 58.8401493,36.8816995 L59.1536493,34.7498995 C58.7565493,34.6244995 58.2131493,34.5199995 57.5025493,34.5199995 C56.5411493,34.5199995 55.6633493,34.8334995 55.0572493,35.4604995 C54.2421493,36.2964995 54.0122493,37.3623995 54.0122493,38.5118995 L54.0122493,38.9298994 L52.6328493,38.9298994 L52.6328493,40.8735994 L54.0122493,40.8735994 L54.0122493,49.1499993 L56.7501493,49.1499993 Z M66.5522492,49.1499993 C66.4268492,48.4602993 66.3850492,47.6242993 66.3850492,46.8091993 L66.3850492,43.0053994 L66.380573,42.6781631 C66.3250123,40.7135205 65.7195492,38.7626995 62.7693492,38.7626995 C61.3481492,38.7626995 60.1568492,39.2015994 59.5925493,39.5359994 L60.0941492,41.3751994 C60.7002492,40.9989994 61.3690492,40.7899994 62.1841492,40.7899994 C63.1455492,40.7899994 63.6262492,41.3751994 63.6262492,42.1693994 L63.6262492,42.3992994 C61.3063492,42.4201994 58.9446493,43.5278994 58.9446493,46.2030994 C58.9446493,48.0213993 60.0941492,49.3171993 61.6407492,49.3171993 C62.5394492,49.3171993 63.3336492,48.9409993 63.8979492,48.1467993 L63.9397492,48.1467993 L64.0860492,49.1499993 L66.5522492,49.1499993 Z M63.7098492,45.9522994 C63.7098492,46.1194994 63.6889492,46.2866994 63.6471492,46.4329994 C63.4590492,47.0390993 62.9574492,47.3107993 62.5185492,47.3107993 C62.1005492,47.3107993 61.5362492,46.9345993 61.5362492,45.9104994 C61.5362492,44.4892994 62.7902492,44.1966994 63.7098492,44.1757994 L63.7098492,45.9522994 Z M73.7627491,46.8300993 C73.4701491,46.9763993 73.1357491,47.0390993 72.7386491,47.0390993 C71.4637491,47.0390993 70.6904491,45.9104994 70.6904491,44.0503994 C70.6904491,42.2738994 71.4637491,41.0198994 72.7804491,41.0198994 C73.2402491,41.0198994 73.5746491,41.1243994 73.8045491,41.2079994 L74.1598491,39.0552994 C73.8881491,38.9298994 73.3029491,38.7835995 72.6550491,38.7835995 C69.8335491,38.7835995 67.9734491,40.9780994 67.9734491,44.1339994 C67.9734491,47.4779993 69.6663491,49.2753993 72.2579491,49.2753993 C73.0312491,49.2753993 73.7209491,49.1081993 73.9926491,48.9827993 L73.7627491,46.8300993 Z M75.0794491,49.1499993 L77.817349,49.1499993 L77.817349,42.7963994 C77.817349,42.5664994 77.880049,42.1902994 77.921849,42.0230994 C78.130849,41.3333994 78.527949,41.0616994 78.987749,41.0616994 C79.759949,41.0616994 79.9694122,41.849531 79.9893218,42.7854512 L79.990949,49.1499993 L82.728849,49.1499993 L82.728849,42.9426994 C82.728849,40.3510994 81.997349,38.7626995 80.116349,38.7626995 C79.614749,38.7626995 79.134049,38.8880994 78.736949,39.1179994 C78.402549,39.3478994 78.089049,39.6404994 77.859149,39.9957994 L77.817349,39.9957994 L77.817349,34.6871995 L75.0794491,34.6871995 L75.0794491,49.1499993 Z M91.7785488,45.0117994 C91.8412488,44.7191994 91.8621488,44.3220994 91.8621488,43.5905994 C91.8621488,40.4973994 90.5872489,38.7626995 88.3927489,38.7626995 C86.0728489,38.7626995 84.2963489,40.8108994 84.2963489,44.2384994 C84.2963489,47.4361993 85.8220489,49.2753993 88.6017489,49.2753993 C89.6467489,49.2753993 90.7126489,49.0872993 91.4232489,48.8155993 L91.0470489,46.8509993 C90.5663489,47.0181993 89.8766489,47.1853993 89.1033489,47.1853993 C87.8911489,47.1853993 86.9715489,46.6001994 86.9297489,45.0117994 L91.7785488,45.0117994 Z M86.9506489,43.0889994 C86.9715489,42.0648994 87.3268489,40.7481994 88.2255489,40.7481994 C89.0406489,40.7481994 89.3750489,41.7722994 89.3750489,43.0889994 L86.9506489,43.0889994 Z M32.9659496,70.5610991 C33.4257496,70.832799 34.5334496,71.125399 35.6620496,71.125399 C38.4208495,71.125399 40.3227495,69.4324991 40.3227495,66.8617991 C40.3227495,65.4424165 39.6917196,64.0804003 38.0089733,62.9769483 L37.366581,62.5776783 C36.1714219,61.8212973 35.8292496,61.3899801 35.8292496,60.6335992 C35.8292496,59.8811992 36.3935495,59.1705992 37.5639495,59.1705992 C38.3581495,59.1705992 38.9642495,59.4004992 39.3613495,59.6512992 L39.8002495,57.2895992 C39.3822495,57.0387992 38.5044495,56.7879992 37.5848495,56.7879992 C34.6379496,56.7879992 33.1331496,58.6689992 33.1331496,60.9261992 C33.1331496,62.2010992 33.8646496,63.6849991 35.7874496,64.8553991 L36.1843751,65.1183401 C37.1176007,65.7539545 37.6057495,66.2507815 37.6057495,67.1543991 C37.6057495,68.0739991 36.9787495,68.7427991 35.6829496,68.7427991 C34.8887496,68.7427991 33.9273496,68.5128991 33.3630496,68.1993991 L32.9659496,70.5610991 Z M41.6394495,75.012799 L44.3773494,75.012799 L44.3773494,70.1639991 L44.4191494,70.1639991 C44.7117494,70.6446991 45.2760494,71.167199 46.1120494,71.167199 C47.8258494,71.167199 49.4351494,69.5160991 49.4351494,65.8794991 C49.4351494,63.0370991 48.5155494,60.6126992 46.2583494,60.6126992 C45.3178494,60.6126992 44.5445494,61.1142992 44.1265494,61.9502992 L44.0847494,61.9502992 L43.9384494,60.7798992 L41.5558495,60.7798992 L41.6006702,61.9022537 C41.6231214,62.5515007 41.6394495,63.2487116 41.6394495,64.0193991 L41.6394495,75.012799 Z M44.3773494,64.5209991 C44.3773494,64.2701991 44.3982494,63.9984991 44.5027494,63.7894991 C44.6072494,63.3087991 45.0043494,62.9116991 45.4223494,62.9116991 C46.2374494,62.9116991 46.6972494,63.9566991 46.6972494,65.9003991 C46.6972494,67.5096991 46.3628494,68.9308991 45.4014494,68.9308991 C45.0879494,68.9308991 44.7326494,68.7636991 44.5236494,68.1366991 C44.4191494,67.9276991 44.3773494,67.6141991 44.3773494,67.2588991 L44.3773494,64.5209991 Z M50.9817494,70.999999 L53.7405493,70.999999 L53.7405493,65.8167991 C53.7405493,65.3778991 53.7823493,65.0225991 53.8450493,64.7926991 C54.1585493,63.7267991 54.9318493,63.3296991 55.5170493,63.3296991 C55.7469493,63.3296991 55.9350493,63.3296991 56.1022493,63.3714991 L56.1022493,60.6544992 C55.9350493,60.6126992 55.7887493,60.6126992 55.5170493,60.6126992 C54.7646493,60.6126992 53.9495493,61.1769992 53.4897493,62.2637992 L53.4270493,62.2637992 L53.2807493,60.7798992 L50.8981494,60.7798992 L50.9456342,61.972704 C50.9667014,62.5931832 50.9817494,63.2377391 50.9817494,63.8521991 L50.9817494,70.999999 Z M64.1905492,70.999999 C64.0651492,70.3102991 64.0233492,69.4742991 64.0233492,68.6591991 L64.0233492,64.8553991 C64.0233492,62.7862991 63.5217492,60.6126992 60.4076492,60.6126992 C58.9864493,60.6126992 57.7951493,61.0515992 57.2308493,61.3859992 L57.7324493,63.2251991 C58.3385493,62.8489991 59.0073493,62.6399992 59.8224492,62.6399992 C60.7838492,62.6399992 61.2645492,63.2251991 61.2645492,64.0193991 L61.2645492,64.2492991 C58.9446493,64.2701991 56.5829493,65.3778991 56.5829493,68.0530991 C56.5829493,69.8713991 57.7324493,71.167199 59.2790493,71.167199 C60.1777492,71.167199 60.9719492,70.790999 61.5362492,69.9967991 L61.5780492,69.9967991 L61.7243492,70.999999 L64.1905492,70.999999 Z M61.3481492,67.8022991 C61.3481492,67.9694991 61.3272492,68.1366991 61.2854492,68.2829991 C61.0973492,68.8890991 60.5957492,69.1607991 60.1568492,69.1607991 C59.7388493,69.1607991 59.1745493,68.7845991 59.1745493,67.7604991 C59.1745493,66.3392991 60.4285492,66.0466991 61.3481492,66.0257991 L61.3481492,67.8022991 Z M71.4010491,68.6800991 C71.1084491,68.8263991 70.7740491,68.8890991 70.3769491,68.8890991 C69.1020491,68.8890991 68.3287491,67.7604991 68.3287491,65.9003991 C68.3287491,64.1238991 69.1020491,62.8698991 70.4187491,62.8698991 C70.8785491,62.8698991 71.2129491,62.9743991 71.4428491,63.0579991 L71.7981491,60.9052992 C71.5264491,60.7798992 70.9412491,60.6335992 70.2933491,60.6335992 C67.4718492,60.6335992 65.6117492,62.8280991 65.6117492,65.9839991 C65.6117492,69.3279991 67.3046492,71.125399 69.8962491,71.125399 C70.6695491,71.125399 71.3592491,70.958199 71.6309491,70.832799 L71.4010491,68.6800991 Z M72.7177491,70.999999 L75.4556491,70.999999 L75.4556491,64.6463991 C75.4556491,64.4164991 75.5183491,64.0402991 75.5601491,63.8730991 C75.769149,63.1833991 76.166249,62.9116991 76.626049,62.9116991 C77.441149,62.9116991 77.629249,63.7894991 77.629249,64.7926991 L77.629249,70.999999 L80.367149,70.999999 L80.367149,64.7926991 C80.367149,62.2010992 79.635649,60.6126992 77.754649,60.6126992 C77.253049,60.6126992 76.772349,60.7380992 76.375249,60.9679992 C76.040849,61.1978992 75.727349,61.4904992 75.4974491,61.8457992 L75.4556491,61.8457992 L75.4556491,56.5371992 L72.7177491,56.5371992 L72.7177491,70.999999 Z M89.4168489,66.8617991 C89.4795489,66.5691991 89.5004489,66.1720991 89.5004489,65.4405991 C89.5004489,62.3473992 88.2255489,60.6126992 86.0310489,60.6126992 C83.7111489,60.6126992 81.934649,62.6608992 81.934649,66.0884991 C81.934649,69.2861991 83.460349,71.125399 86.2400489,71.125399 C87.2850489,71.125399 88.3509489,70.937299 89.0615489,70.6655991 L88.6853489,68.7009991 C88.2046489,68.8681991 87.5149489,69.0353991 86.7416489,69.0353991 C85.5294489,69.0353991 84.6098489,68.4501991 84.5680489,66.8617991 L89.4168489,66.8617991 Z M84.5889489,64.9389991 C84.6098489,63.9148991 84.9651489,62.5981992 85.8638489,62.5981992 C86.6789489,62.5981992 87.0133489,63.6222991 87.0133489,64.9389991 L84.5889489,64.9389991 Z"/>
  </g>
</svg>
